<svg xmlns="http://www.w3.org/2000/svg" xmlns:xlink="http://www.w3.org/1999/xlink" contentStyleType="text/css" data-diagram-type="ACTIVITY" height="697px" preserveAspectRatio="none" style="width:445px;height:697px;background:#FFFFFF;" version="1.1" viewBox="0 0 445 697" width="445px" zoomAndPan="magnify"><defs/><g><ellipse cx="262.601" cy="20" fill="#222222" rx="10" ry="10" style="stroke:#222222;stroke-width:1;"/><rect fill="#F1F1F1" height="33.9688" rx="12.5" ry="12.5" style="stroke:#181818;stroke-width:0.5;" width="109.4668" x="207.8676" y="98.4023"/><text fill="#000000" font-family="sans-serif" font-size="12" lengthAdjust="spacing" textLength="89.4668" x="217.8676" y="119.541">Sign up / Login</text><polygon fill="#F1F1F1" points="219.8846,50,305.3173,50,317.3173,62,305.3173,74,219.8846,74,207.8846,62,219.8846,50" style="stroke:#181818;stroke-width:0.5;"/><text fill="#000000" font-family="sans-serif" font-size="11" lengthAdjust="spacing" textLength="14.9585" x="266.601" y="84.2104">No</text><text fill="#000000" font-family="sans-serif" font-size="11" lengthAdjust="spacing" textLength="85.4326" x="219.8846" y="65.8081">User logged in?</text><polygon fill="#F1F1F1" points="262.601,152.3711,274.601,164.3711,262.601,176.3711,250.601,164.3711,262.601,152.3711" style="stroke:#181818;stroke-width:0.5;"/><rect fill="#F1F1F1" height="33.9688" rx="12.5" ry="12.5" style="stroke:#181818;stroke-width:0.5;" width="108.2012" x="208.5004" y="196.3711"/><text fill="#000000" font-family="sans-serif" font-size="12" lengthAdjust="spacing" textLength="88.2012" x="218.5004" y="217.5098">Browse events</text><rect fill="#F1F1F1" height="33.9688" rx="12.5" ry="12.5" style="stroke:#181818;stroke-width:0.5;" width="95.0117" x="215.0951" y="250.3398"/><text fill="#000000" font-family="sans-serif" font-size="12" lengthAdjust="spacing" textLength="75.0117" x="225.0951" y="271.4785">Select event</text><rect fill="#F1F1F1" height="33.9688" rx="12.5" ry="12.5" style="stroke:#181818;stroke-width:0.5;" width="111.7578" x="206.722" y="304.3086"/><text fill="#000000" font-family="sans-serif" font-size="12" lengthAdjust="spacing" textLength="91.7578" x="216.722" y="325.4473">Create booking</text><polygon fill="#F1F1F1" points="224.1547,358.2773,301.0472,358.2773,313.0472,370.2773,301.0472,382.2773,224.1547,382.2773,212.1547,370.2773,224.1547,358.2773" style="stroke:#181818;stroke-width:0.5;"/><text fill="#000000" font-family="sans-serif" font-size="11" lengthAdjust="spacing" textLength="76.8926" x="224.1547" y="374.0854">Event is paid?</text><text fill="#000000" font-family="sans-serif" font-size="11" lengthAdjust="spacing" textLength="19.2178" x="192.9369" y="367.6831">Yes</text><text fill="#000000" font-family="sans-serif" font-size="11" lengthAdjust="spacing" textLength="14.9585" x="313.0472" y="367.6831">No</text><rect fill="#F1F1F1" height="33.9688" rx="12.5" ry="12.5" style="stroke:#181818;stroke-width:0.5;" width="153.2715" x="73.386" y="392.2773"/><text fill="#000000" font-family="sans-serif" font-size="12" lengthAdjust="spacing" textLength="133.2715" x="83.386" y="413.416">Enter payment details</text><polygon fill="#F1F1F1" points="92.5645,446.2461,207.479,446.2461,219.479,458.2461,207.479,470.2461,92.5645,470.2461,80.5645,458.2461,92.5645,446.2461" style="stroke:#181818;stroke-width:0.5;"/><text fill="#000000" font-family="sans-serif" font-size="11" lengthAdjust="spacing" textLength="114.9146" x="92.5645" y="462.0542">Payment successful?</text><text fill="#000000" font-family="sans-serif" font-size="11" lengthAdjust="spacing" textLength="19.2178" x="61.3467" y="455.6519">Yes</text><text fill="#000000" font-family="sans-serif" font-size="11" lengthAdjust="spacing" textLength="14.9585" x="219.479" y="455.6519">No</text><rect fill="#F1F1F1" height="33.9688" rx="12.5" ry="12.5" style="stroke:#181818;stroke-width:0.5;" width="119.1289" x="11" y="480.2461"/><text fill="#000000" font-family="sans-serif" font-size="12" lengthAdjust="spacing" textLength="99.1289" x="21" y="501.3848">Confirm booking</text><rect fill="#F1F1F1" height="33.9688" rx="12.5" ry="12.5" style="stroke:#181818;stroke-width:0.5;" width="112.2734" x="173.3423" y="480.2461"/><text fill="#000000" font-family="sans-serif" font-size="12" lengthAdjust="spacing" textLength="92.2734" x="183.3423" y="501.3848">Cancel booking</text><ellipse cx="229.479" cy="545.2148" fill="none" rx="11" ry="11" style="stroke:#222222;stroke-width:1;"/><ellipse cx="229.479" cy="545.2148" fill="#222222" rx="6" ry="6" style="stroke:#222222;stroke-width:1;"/><rect fill="#F1F1F1" height="33.9688" rx="12.5" ry="12.5" style="stroke:#181818;stroke-width:0.5;" width="119.1289" x="315.6157" y="392.2773"/><text fill="#000000" font-family="sans-serif" font-size="12" lengthAdjust="spacing" textLength="99.1289" x="325.6157" y="413.416">Confirm booking</text><polygon fill="#F1F1F1" points="262.601,566.2148,274.601,578.2148,262.601,590.2148,250.601,578.2148,262.601,566.2148" style="stroke:#181818;stroke-width:0.5;"/><rect fill="#F1F1F1" height="33.9688" rx="12.5" ry="12.5" style="stroke:#181818;stroke-width:0.5;" width="183.8809" x="170.6605" y="610.2148"/><text fill="#000000" font-family="sans-serif" font-size="12" lengthAdjust="spacing" textLength="163.8809" x="180.6605" y="631.3535">Show booking confirmation</text><ellipse cx="262.601" cy="675.1836" fill="none" rx="11" ry="11" style="stroke:#222222;stroke-width:1;"/><ellipse cx="262.601" cy="675.1836" fill="#222222" rx="6" ry="6" style="stroke:#222222;stroke-width:1;"/><line style="stroke:#181818;stroke-width:1;" x1="262.601" x2="262.601" y1="74" y2="98.4023"/><polygon fill="#181818" points="258.601,88.4023,262.601,98.4023,266.601,88.4023,262.601,92.4023" style="stroke:#181818;stroke-width:1;"/><line style="stroke:#181818;stroke-width:1;" x1="317.3173" x2="329.3173" y1="62" y2="62"/><polygon fill="#181818" points="325.3173,105.3867,329.3173,115.3867,333.3173,105.3867,329.3173,109.3867" style="stroke:#181818;stroke-width:1;"/><line style="stroke:#181818;stroke-width:1;" x1="329.3173" x2="329.3173" y1="62" y2="164.3711"/><line style="stroke:#181818;stroke-width:1;" x1="329.3173" x2="274.601" y1="164.3711" y2="164.3711"/><polygon fill="#181818" points="284.601,160.3711,274.601,164.3711,284.601,168.3711,280.601,164.3711" style="stroke:#181818;stroke-width:1;"/><line style="stroke:#181818;stroke-width:1;" x1="262.601" x2="262.601" y1="132.3711" y2="152.3711"/><polygon fill="#181818" points="258.601,142.3711,262.601,152.3711,266.601,142.3711,262.601,146.3711" style="stroke:#181818;stroke-width:1;"/><line style="stroke:#181818;stroke-width:1;" x1="262.601" x2="262.601" y1="30" y2="50"/><polygon fill="#181818" points="258.601,40,262.601,50,266.601,40,262.601,44" style="stroke:#181818;stroke-width:1;"/><line style="stroke:#181818;stroke-width:1;" x1="262.601" x2="262.601" y1="176.3711" y2="196.3711"/><polygon fill="#181818" points="258.601,186.3711,262.601,196.3711,266.601,186.3711,262.601,190.3711" style="stroke:#181818;stroke-width:1;"/><line style="stroke:#181818;stroke-width:1;" x1="262.601" x2="262.601" y1="230.3398" y2="250.3398"/><polygon fill="#181818" points="258.601,240.3398,262.601,250.3398,266.601,240.3398,262.601,244.3398" style="stroke:#181818;stroke-width:1;"/><line style="stroke:#181818;stroke-width:1;" x1="262.601" x2="262.601" y1="284.3086" y2="304.3086"/><polygon fill="#181818" points="258.601,294.3086,262.601,304.3086,266.601,294.3086,262.601,298.3086" style="stroke:#181818;stroke-width:1;"/><line style="stroke:#181818;stroke-width:1;" x1="229.479" x2="229.479" y1="514.2148" y2="534.2148"/><polygon fill="#181818" points="225.479,524.2148,229.479,534.2148,233.479,524.2148,229.479,528.2148" style="stroke:#181818;stroke-width:1;"/><line style="stroke:#181818;stroke-width:1;" x1="80.5645" x2="70.5645" y1="458.2461" y2="458.2461"/><line style="stroke:#181818;stroke-width:1;" x1="70.5645" x2="70.5645" y1="458.2461" y2="480.2461"/><polygon fill="#181818" points="66.5645,470.2461,70.5645,480.2461,74.5645,470.2461,70.5645,474.2461" style="stroke:#181818;stroke-width:1;"/><line style="stroke:#181818;stroke-width:1;" x1="219.479" x2="229.479" y1="458.2461" y2="458.2461"/><line style="stroke:#181818;stroke-width:1;" x1="229.479" x2="229.479" y1="458.2461" y2="480.2461"/><polygon fill="#181818" points="225.479,470.2461,229.479,480.2461,233.479,470.2461,229.479,474.2461" style="stroke:#181818;stroke-width:1;"/><line style="stroke:#181818;stroke-width:1;" x1="70.5645" x2="70.5645" y1="514.2148" y2="578.2148"/><line style="stroke:#181818;stroke-width:1;" x1="70.5645" x2="250.601" y1="578.2148" y2="578.2148"/><polygon fill="#181818" points="240.601,574.2148,250.601,578.2148,240.601,582.2148,244.601,578.2148" style="stroke:#181818;stroke-width:1;"/><line style="stroke:#181818;stroke-width:1;" x1="150.0217" x2="150.0217" y1="426.2461" y2="446.2461"/><polygon fill="#181818" points="146.0217,436.2461,150.0217,446.2461,154.0217,436.2461,150.0217,440.2461" style="stroke:#181818;stroke-width:1;"/><line style="stroke:#181818;stroke-width:1;" x1="212.1547" x2="150.0217" y1="370.2773" y2="370.2773"/><line style="stroke:#181818;stroke-width:1;" x1="150.0217" x2="150.0217" y1="370.2773" y2="392.2773"/><polygon fill="#181818" points="146.0217,382.2773,150.0217,392.2773,154.0217,382.2773,150.0217,386.2773" style="stroke:#181818;stroke-width:1;"/><line style="stroke:#181818;stroke-width:1;" x1="313.0472" x2="375.1802" y1="370.2773" y2="370.2773"/><line style="stroke:#181818;stroke-width:1;" x1="375.1802" x2="375.1802" y1="370.2773" y2="392.2773"/><polygon fill="#181818" points="371.1802,382.2773,375.1802,392.2773,379.1802,382.2773,375.1802,386.2773" style="stroke:#181818;stroke-width:1;"/><line style="stroke:#181818;stroke-width:1;" x1="375.1802" x2="375.1802" y1="426.2461" y2="578.2148"/><line style="stroke:#181818;stroke-width:1;" x1="375.1802" x2="274.601" y1="578.2148" y2="578.2148"/><polygon fill="#181818" points="284.601,574.2148,274.601,578.2148,284.601,582.2148,280.601,578.2148" style="stroke:#181818;stroke-width:1;"/><line style="stroke:#181818;stroke-width:1;" x1="262.601" x2="262.601" y1="338.2773" y2="358.2773"/><polygon fill="#181818" points="258.601,348.2773,262.601,358.2773,266.601,348.2773,262.601,352.2773" style="stroke:#181818;stroke-width:1;"/><line style="stroke:#181818;stroke-width:1;" x1="262.601" x2="262.601" y1="590.2148" y2="610.2148"/><polygon fill="#181818" points="258.601,600.2148,262.601,610.2148,266.601,600.2148,262.601,604.2148" style="stroke:#181818;stroke-width:1;"/><line style="stroke:#181818;stroke-width:1;" x1="262.601" x2="262.601" y1="644.1836" y2="664.1836"/><polygon fill="#181818" points="258.601,654.1836,262.601,664.1836,266.601,654.1836,262.601,658.1836" style="stroke:#181818;stroke-width:1;"/><!--SRC=[PP0nJmCn38Nt_8etjXFxtO14rGqXf5C7nf3pfHQfVOfpLFnxaciB5OosFx_dPoi-5ySJDWUZZAGnqWYMnotAaGIR5zqwe1iu2fOP3tZMoD8xaf4dvxgdh6SZq2T9iTvr0oKAvLBNSfV95yAxwWTBxDrgjMz3i67sFFuulP6jLdifzPBPVvqQDLBndAeoq5PVhsrRGY2pQKb_zwl2JcNYVFfr1IZL8wzX6k4bKBe702iwDt8DTi__rxk57uvwldKHBfGlhFK_JUqR]--></g></svg>
