<svg xmlns="http://www.w3.org/2000/svg" xmlns:xlink="http://www.w3.org/1999/xlink" contentStyleType="text/css" data-diagram-type="CLASS" height="410px" preserveAspectRatio="none" style="width:854px;height:410px;background:#FFFFFF;" version="1.1" viewBox="0 0 854 410" width="854px" zoomAndPan="magnify"><defs/><g><!--class User--><g class="entity" data-qualified-name="User" data-source-line="3" id="ent0002"><rect fill="#F1F1F1" height="194.6719" rx="2.5" ry="2.5" style="stroke:#181818;stroke-width:0.5;" width="91.9053" x="7" y="208.74"/><ellipse cx="34.5978" cy="224.74" fill="#ADD1B2" rx="11" ry="11" style="stroke:#181818;stroke-width:1;"/><path d="M37.5666,230.3806 Q36.9884,230.6775 36.3478,230.8181 Q35.7072,230.9744 35.0041,230.9744 Q32.5041,230.9744 31.1759,229.3338 Q29.8634,227.6775 29.8634,224.5525 Q29.8634,221.4275 31.1759,219.7713 Q32.5041,218.115 35.0041,218.115 Q35.7072,218.115 36.3478,218.2713 Q37.0041,218.4275 37.5666,218.7244 L37.5666,221.4431 Q36.9416,220.865 36.3478,220.5994 Q35.7541,220.3181 35.1291,220.3181 Q33.7853,220.3181 33.0978,221.3963 Q32.4103,222.4588 32.4103,224.5525 Q32.4103,226.6463 33.0978,227.7244 Q33.7853,228.7869 35.1291,228.7869 Q35.7541,228.7869 36.3478,228.5213 Q36.9416,228.24 37.5666,227.6619 L37.5666,230.3806 Z " fill="#000000"/><text fill="#000000" font-family="sans-serif" font-size="14" lengthAdjust="spacing" textLength="31.9102" x="51.3973" y="229.5867">User</text><line style="stroke:#181818;stroke-width:0.5;" x1="8" x2="97.9053" y1="240.74" y2="240.74"/><text fill="#000000" font-family="sans-serif" font-size="14" lengthAdjust="spacing" textLength="12.7764" x="13" y="257.7351">id</text><text fill="#000000" font-family="sans-serif" font-size="14" lengthAdjust="spacing" textLength="39.7031" x="13" y="274.032">name</text><text fill="#000000" font-family="sans-serif" font-size="14" lengthAdjust="spacing" textLength="38.6094" x="13" y="290.3289">email</text><text fill="#000000" font-family="sans-serif" font-size="14" lengthAdjust="spacing" textLength="66.7119" x="13" y="306.6257">password</text><text fill="#000000" font-family="sans-serif" font-size="14" lengthAdjust="spacing" textLength="79.9053" x="13" y="322.9226">isOrganizer</text><text fill="#000000" font-family="sans-serif" font-size="14" lengthAdjust="spacing" textLength="56.0479" x="13" y="339.2195">isAdmin</text><line style="stroke:#181818;stroke-width:1;" x1="8" x2="97.9053" y1="346.5213" y2="346.5213"/><text fill="#000000" font-family="sans-serif" font-size="14" lengthAdjust="spacing" textLength="45.0283" x="13" y="363.5164">login()</text><text fill="#000000" font-family="sans-serif" font-size="14" lengthAdjust="spacing" textLength="57.627" x="13" y="379.8132">signup()</text><text fill="#000000" font-family="sans-serif" font-size="14" lengthAdjust="spacing" textLength="55.1934" x="13" y="396.1101">logout()</text></g><!--class Event--><g class="entity" data-qualified-name="Event" data-source-line="16" id="ent0003"><rect fill="#F1F1F1" height="276.1563" rx="2.5" ry="2.5" style="stroke:#181818;stroke-width:0.5;" width="155.7939" x="208.91" y="7"/><ellipse cx="262.5037" cy="23" fill="#ADD1B2" rx="11" ry="11" style="stroke:#181818;stroke-width:1;"/><path d="M265.4725,28.6406 Q264.8944,28.9375 264.2537,29.0781 Q263.6131,29.2344 262.91,29.2344 Q260.41,29.2344 259.0819,27.5938 Q257.7694,25.9375 257.7694,22.8125 Q257.7694,19.6875 259.0819,18.0313 Q260.41,16.375 262.91,16.375 Q263.6131,16.375 264.2537,16.5313 Q264.91,16.6875 265.4725,16.9844 L265.4725,19.7031 Q264.8475,19.125 264.2537,18.8594 Q263.66,18.5781 263.035,18.5781 Q261.6912,18.5781 261.0037,19.6563 Q260.3162,20.7188 260.3162,22.8125 Q260.3162,24.9063 261.0037,25.9844 Q261.6912,27.0469 263.035,27.0469 Q263.66,27.0469 264.2537,26.7813 Q264.8475,26.5 265.4725,25.9219 L265.4725,28.6406 Z " fill="#000000"/><text fill="#000000" font-family="sans-serif" font-size="14" lengthAdjust="spacing" textLength="40.1064" x="283.0037" y="27.8467">Event</text><line style="stroke:#181818;stroke-width:0.5;" x1="209.91" x2="363.7039" y1="39" y2="39"/><text fill="#000000" font-family="sans-serif" font-size="14" lengthAdjust="spacing" textLength="12.7764" x="214.91" y="55.9951">id</text><text fill="#000000" font-family="sans-serif" font-size="14" lengthAdjust="spacing" textLength="27.3711" x="214.91" y="72.292">title</text><text fill="#000000" font-family="sans-serif" font-size="14" lengthAdjust="spacing" textLength="77.8408" x="214.91" y="88.5889">description</text><text fill="#000000" font-family="sans-serif" font-size="14" lengthAdjust="spacing" textLength="55.5488" x="214.91" y="104.8857">location</text><text fill="#000000" font-family="sans-serif" font-size="14" lengthAdjust="spacing" textLength="71.1758" x="214.91" y="121.1826">start_date</text><text fill="#000000" font-family="sans-serif" font-size="14" lengthAdjust="spacing" textLength="64.9414" x="214.91" y="137.4795">end_date</text><text fill="#000000" font-family="sans-serif" font-size="14" lengthAdjust="spacing" textLength="34.8428" x="214.91" y="153.7764">price</text><text fill="#000000" font-family="sans-serif" font-size="14" lengthAdjust="spacing" textLength="59.1035" x="214.91" y="170.0732">capacity</text><text fill="#000000" font-family="sans-serif" font-size="14" lengthAdjust="spacing" textLength="43.0186" x="214.91" y="186.3701">status</text><line style="stroke:#181818;stroke-width:1;" x1="209.91" x2="363.7039" y1="193.6719" y2="193.6719"/><text fill="#000000" font-family="sans-serif" font-size="14" lengthAdjust="spacing" textLength="143.7939" x="214.91" y="210.667">submitForApproval()</text><text fill="#000000" font-family="sans-serif" font-size="14" lengthAdjust="spacing" textLength="68.4961" x="214.91" y="226.9639">approve()</text><text fill="#000000" font-family="sans-serif" font-size="14" lengthAdjust="spacing" textLength="60.252" x="214.91" y="243.2607">update()</text><text fill="#000000" font-family="sans-serif" font-size="14" lengthAdjust="spacing" textLength="55.0293" x="214.91" y="259.5576">delete()</text><text fill="#000000" font-family="sans-serif" font-size="14" lengthAdjust="spacing" textLength="50.9824" x="214.91" y="275.8545">reject()</text></g><!--class EventImage--><g class="entity" data-qualified-name="EventImage" data-source-line="34" id="ent0004"><rect fill="#F1F1F1" height="96.8906" rx="2.5" ry="2.5" style="stroke:#181818;stroke-width:0.5;" width="115.9521" x="473.7" y="96.63"/><ellipse cx="488.7" cy="112.63" fill="#ADD1B2" rx="11" ry="11" style="stroke:#181818;stroke-width:1;"/><path d="M491.6688,118.2706 Q491.0906,118.5675 490.45,118.7081 Q489.8094,118.8644 489.1063,118.8644 Q486.6063,118.8644 485.2781,117.2238 Q483.9656,115.5675 483.9656,112.4425 Q483.9656,109.3175 485.2781,107.6613 Q486.6063,106.005 489.1063,106.005 Q489.8094,106.005 490.45,106.1613 Q491.1063,106.3175 491.6688,106.6144 L491.6688,109.3331 Q491.0438,108.755 490.45,108.4894 Q489.8563,108.2081 489.2313,108.2081 Q487.8875,108.2081 487.2,109.2863 Q486.5125,110.3488 486.5125,112.4425 Q486.5125,114.5363 487.2,115.6144 Q487.8875,116.6769 489.2313,116.6769 Q489.8563,116.6769 490.45,116.4113 Q491.0438,116.13 491.6688,115.5519 L491.6688,118.2706 Z " fill="#000000"/><text fill="#000000" font-family="sans-serif" font-size="14" lengthAdjust="spacing" textLength="83.9521" x="502.7" y="117.4767">EventImage</text><line style="stroke:#181818;stroke-width:0.5;" x1="474.7" x2="588.6521" y1="128.63" y2="128.63"/><text fill="#000000" font-family="sans-serif" font-size="14" lengthAdjust="spacing" textLength="12.7764" x="479.7" y="145.6251">id</text><text fill="#000000" font-family="sans-serif" font-size="14" lengthAdjust="spacing" textLength="82.4346" x="479.7" y="161.922">image_path</text><text fill="#000000" font-family="sans-serif" font-size="14" lengthAdjust="spacing" textLength="81.8809" x="479.7" y="178.2189">image_type</text><line style="stroke:#181818;stroke-width:0.5;" x1="474.7" x2="588.6521" y1="185.5206" y2="185.5206"/></g><!--class Booking--><g class="entity" data-qualified-name="Booking" data-source-line="40" id="ent0005"><rect fill="#F1F1F1" height="145.7813" rx="2.5" ry="2.5" style="stroke:#181818;stroke-width:0.5;" width="106.3428" x="478.5" y="245.18"/><ellipse cx="501.5328" cy="261.18" fill="#ADD1B2" rx="11" ry="11" style="stroke:#181818;stroke-width:1;"/><path d="M504.5015,266.8206 Q503.9234,267.1175 503.2828,267.2581 Q502.6421,267.4144 501.939,267.4144 Q499.439,267.4144 498.1109,265.7738 Q496.7984,264.1175 496.7984,260.9925 Q496.7984,257.8675 498.1109,256.2113 Q499.439,254.555 501.939,254.555 Q502.6421,254.555 503.2828,254.7113 Q503.939,254.8675 504.5015,255.1644 L504.5015,257.8831 Q503.8765,257.305 503.2828,257.0394 Q502.689,256.7581 502.064,256.7581 Q500.7203,256.7581 500.0328,257.8363 Q499.3453,258.8988 499.3453,260.9925 Q499.3453,263.0863 500.0328,264.1644 Q500.7203,265.2269 502.064,265.2269 Q502.689,265.2269 503.2828,264.9613 Q503.8765,264.68 504.5015,264.1019 L504.5015,266.8206 Z " fill="#000000"/><text fill="#000000" font-family="sans-serif" font-size="14" lengthAdjust="spacing" textLength="56.4922" x="517.3178" y="266.0267">Booking</text><line style="stroke:#181818;stroke-width:0.5;" x1="479.5" x2="583.8428" y1="277.18" y2="277.18"/><text fill="#000000" font-family="sans-serif" font-size="14" lengthAdjust="spacing" textLength="12.7764" x="484.5" y="294.1751">id</text><text fill="#000000" font-family="sans-serif" font-size="14" lengthAdjust="spacing" textLength="58.3652" x="484.5" y="310.472">quantity</text><text fill="#000000" font-family="sans-serif" font-size="14" lengthAdjust="spacing" textLength="94.3428" x="484.5" y="326.7689">booking_date</text><text fill="#000000" font-family="sans-serif" font-size="14" lengthAdjust="spacing" textLength="43.0186" x="484.5" y="343.0657">status</text><line style="stroke:#181818;stroke-width:1;" x1="479.5" x2="583.8428" y1="350.3675" y2="350.3675"/><text fill="#000000" font-family="sans-serif" font-size="14" lengthAdjust="spacing" textLength="64.2715" x="484.5" y="367.3626">confirm()</text><text fill="#000000" font-family="sans-serif" font-size="14" lengthAdjust="spacing" textLength="56.2734" x="484.5" y="383.6595">cancel()</text></g><!--class Payment--><g class="entity" data-qualified-name="Payment" data-source-line="50" id="ent0006"><rect fill="#F1F1F1" height="145.7813" rx="2.5" ry="2.5" style="stroke:#181818;stroke-width:0.5;" width="138.9502" x="708.65" y="245.18"/><ellipse cx="743.9136" cy="261.18" fill="#ADD1B2" rx="11" ry="11" style="stroke:#181818;stroke-width:1;"/><path d="M746.8824,266.8206 Q746.3042,267.1175 745.6636,267.2581 Q745.023,267.4144 744.3199,267.4144 Q741.8199,267.4144 740.4917,265.7738 Q739.1792,264.1175 739.1792,260.9925 Q739.1792,257.8675 740.4917,256.2113 Q741.8199,254.555 744.3199,254.555 Q745.023,254.555 745.6636,254.7113 Q746.3199,254.8675 746.8824,255.1644 L746.8824,257.8831 Q746.2574,257.305 745.6636,257.0394 Q745.0699,256.7581 744.4449,256.7581 Q743.1011,256.7581 742.4136,257.8363 Q741.7261,258.8988 741.7261,260.9925 Q741.7261,263.0863 742.4136,264.1644 Q743.1011,265.2269 744.4449,265.2269 Q745.0699,265.2269 745.6636,264.9613 Q746.2574,264.68 746.8824,264.1019 L746.8824,266.8206 Z " fill="#000000"/><text fill="#000000" font-family="sans-serif" font-size="14" lengthAdjust="spacing" textLength="61.9199" x="762.4167" y="266.0267">Payment</text><line style="stroke:#181818;stroke-width:0.5;" x1="709.65" x2="846.6002" y1="277.18" y2="277.18"/><text fill="#000000" font-family="sans-serif" font-size="14" lengthAdjust="spacing" textLength="12.7764" x="714.65" y="294.1751">id</text><text fill="#000000" font-family="sans-serif" font-size="14" lengthAdjust="spacing" textLength="54.0176" x="714.65" y="310.472">amount</text><text fill="#000000" font-family="sans-serif" font-size="14" lengthAdjust="spacing" textLength="54.0654" x="714.65" y="326.7689">method</text><text fill="#000000" font-family="sans-serif" font-size="14" lengthAdjust="spacing" textLength="112.3828" x="714.65" y="343.0657">payment_status</text><text fill="#000000" font-family="sans-serif" font-size="14" lengthAdjust="spacing" textLength="98.8613" x="714.65" y="359.3626">transaction_id</text><line style="stroke:#181818;stroke-width:1;" x1="709.65" x2="846.6002" y1="366.6644" y2="366.6644"/><text fill="#000000" font-family="sans-serif" font-size="14" lengthAdjust="spacing" textLength="126.9502" x="714.65" y="383.6595">processPayment()</text></g><!--link User to Event--><g class="link" data-entity-1="ent0002" data-entity-2="ent0003" data-link-type="association" data-source-line="60" id="lnk7"><path codeLine="60" d="M99.21,274.65 C130.31,253.05 172.38,223.84 208.71,198.61" fill="none" id="User-Event" style="stroke:#181818;stroke-width:1;"/><text fill="#000000" font-family="sans-serif" font-size="13" lengthAdjust="spacing" textLength="48.3247" x="129.91" y="217.1369">creates</text><text fill="#000000" font-family="sans-serif" font-size="13" lengthAdjust="spacing" textLength="8.271" x="106.9264" y="283.0634">1</text><text fill="#000000" font-family="sans-serif" font-size="13" lengthAdjust="spacing" textLength="23.0356" x="178.0118" y="215.9275">0..*</text></g><!--link User to Booking--><g class="link" data-entity-1="ent0002" data-entity-2="ent0005" data-link-type="association" data-source-line="61" id="lnk8"><path codeLine="61" d="M99.33,310.52 C130.19,313.31 171.97,316.65 208.91,318.07 C303.8,321.74 414.56,320.54 478.26,319.32" fill="none" id="User-Booking" style="stroke:#181818;stroke-width:1;"/><text fill="#000000" font-family="sans-serif" font-size="13" lengthAdjust="spacing" textLength="42.9292" x="265.8" y="314.1369">makes</text><text fill="#000000" font-family="sans-serif" font-size="13" lengthAdjust="spacing" textLength="8.271" x="106.7491" y="324.3509">1</text><text fill="#000000" font-family="sans-serif" font-size="13" lengthAdjust="spacing" textLength="23.0356" x="447.3511" y="332.4613">0..*</text></g><!--link Event to Booking--><g class="link" data-entity-1="ent0003" data-entity-2="ent0005" data-link-type="association" data-source-line="62" id="lnk9"><path codeLine="62" d="M364.98,200.05 C401.93,226.37 445.21,257.2 478.27,280.74" fill="none" id="Event-Booking" style="stroke:#181818;stroke-width:1;"/><text fill="#000000" font-family="sans-serif" font-size="13" lengthAdjust="spacing" textLength="22.9785" x="408.2" y="223.1369">has</text><text fill="#000000" font-family="sans-serif" font-size="13" lengthAdjust="spacing" textLength="8.271" x="372.825" y="218.0776">1</text><text fill="#000000" font-family="sans-serif" font-size="13" lengthAdjust="spacing" textLength="23.0356" x="447.3623" y="289.1794">0..*</text></g><!--link Booking to Payment--><g class="link" data-entity-1="ent0005" data-entity-2="ent0006" data-link-type="association" data-source-line="63" id="lnk10"><path codeLine="63" d="M585.12,318.07 C621.17,318.07 669.41,318.07 708.51,318.07" fill="none" id="Booking-Payment" style="stroke:#181818;stroke-width:1;"/><text fill="#000000" font-family="sans-serif" font-size="13" lengthAdjust="spacing" textLength="57.9097" x="620.65" y="314.1369">payment</text><text fill="#000000" font-family="sans-serif" font-size="13" lengthAdjust="spacing" textLength="24.8066" x="592.7341" y="331.0117">0..1</text><text fill="#000000" font-family="sans-serif" font-size="13" lengthAdjust="spacing" textLength="8.271" x="692.4732" y="330.9644">1</text></g><!--link Event to EventImage--><g class="link" data-entity-1="ent0003" data-entity-2="ent0004" data-link-type="association" data-source-line="64" id="lnk11"><path codeLine="64" d="M364.98,145.07 C400.12,145.07 440.99,145.07 473.35,145.07" fill="none" id="Event-EventImage" style="stroke:#181818;stroke-width:1;"/><text fill="#000000" font-family="sans-serif" font-size="13" lengthAdjust="spacing" textLength="47.2646" x="395.7" y="141.1369">images</text><text fill="#000000" font-family="sans-serif" font-size="13" lengthAdjust="spacing" textLength="8.271" x="372.825" y="157.8573">1</text><text fill="#000000" font-family="sans-serif" font-size="13" lengthAdjust="spacing" textLength="23.0356" x="442.7147" y="157.9639">0..*</text></g><!--SRC=[TL9DJyCm3BttLqGz0T8ckFOs990umOLpvILUQvOl4dTe8FuxQTgicu1B_5m_syzsDUvOi1E1kfw5ee2IoTcgaXfY5AyHW_YgX22L7Wi6aq43f9FrYV7XmXYX-1mwiFI98NiRPSWcj5gbHxkExDLrGf4wE_WCqqStS8BVfTV30IqlpPXOZzqKHXd8PrLZceGPHeR0hGBEcgmgq0UIevNWGH8V9oeFiUY9mzOGFxgmyJwu0-Wi2BA36Gz-h9MXGeqp3FYMjlDByfE13XVTDBgj1-vF3XyzBadtpkt9Tal6-m2M9w7RALP6kTGjdTrHC5cB12jHdsjvWQEvM20ODrXEm23tJkM3PKfxAii1R8HyyJRdv3vf3n9Zd0jEFVAFKD_LYI7gs_NwffxlrGWPCAcDVr7Ag8qmi4-KAUK_JW-nAjuOd6d9bDcQCiAVbSwkqKoRZpy0]--></g></svg>
