<svg xmlns="http://www.w3.org/2000/svg" xmlns:xlink="http://www.w3.org/1999/xlink" contentStyleType="text/css" data-diagram-type="DESCRIPTION" height="335px" preserveAspectRatio="none" style="width:911px;height:335px;background:#FFFFFF;" version="1.1" viewBox="0 0 911 335" width="911px" zoomAndPan="magnify"><defs/><g><!--entity UI--><g class="entity" data-qualified-name="UI" data-source-line="3" id="ent0002"><rect fill="#F1F1F1" height="62.5938" rx="2.5" ry="2.5" style="stroke:#181818;stroke-width:0.5;" width="124.4785" x="7" y="122.85"/><rect fill="#F1F1F1" height="10" style="stroke:#181818;stroke-width:0.5;" width="15" x="111.4785" y="127.85"/><rect fill="#F1F1F1" height="2" style="stroke:#181818;stroke-width:0.5;" width="4" x="109.4785" y="129.85"/><rect fill="#F1F1F1" height="2" style="stroke:#181818;stroke-width:0.5;" width="4" x="109.4785" y="133.85"/><text fill="#000000" font-family="sans-serif" font-size="14" lengthAdjust="spacing" textLength="50.1689" x="22" y="155.8451">Web UI</text><text fill="#000000" font-family="sans-serif" font-size="14" lengthAdjust="spacing" textLength="84.4785" x="22" y="172.142">(Templates)</text></g><!--entity Auth--><g class="entity" data-qualified-name="Auth" data-source-line="5" id="ent0003"><rect fill="#F1F1F1" height="46.2969" rx="2.5" ry="2.5" style="stroke:#181818;stroke-width:0.5;" width="128.1699" x="417.88" y="7"/><rect fill="#F1F1F1" height="10" style="stroke:#181818;stroke-width:0.5;" width="15" x="526.0499" y="12"/><rect fill="#F1F1F1" height="2" style="stroke:#181818;stroke-width:0.5;" width="4" x="524.0499" y="14"/><rect fill="#F1F1F1" height="2" style="stroke:#181818;stroke-width:0.5;" width="4" x="524.0499" y="18"/><text fill="#000000" font-family="sans-serif" font-size="14" lengthAdjust="spacing" textLength="88.1699" x="432.88" y="39.9951">Auth Module</text></g><!--entity Event--><g class="entity" data-qualified-name="Event" data-source-line="6" id="ent0004"><rect fill="#F1F1F1" height="46.2969" rx="2.5" ry="2.5" style="stroke:#181818;stroke-width:0.5;" width="135.4639" x="414.23" y="88"/><rect fill="#F1F1F1" height="10" style="stroke:#181818;stroke-width:0.5;" width="15" x="529.6939" y="93"/><rect fill="#F1F1F1" height="2" style="stroke:#181818;stroke-width:0.5;" width="4" x="527.6939" y="95"/><rect fill="#F1F1F1" height="2" style="stroke:#181818;stroke-width:0.5;" width="4" x="527.6939" y="99"/><text fill="#000000" font-family="sans-serif" font-size="14" lengthAdjust="spacing" textLength="95.4639" x="429.23" y="120.9951">Event Module</text></g><!--entity Booking--><g class="entity" data-qualified-name="Booking" data-source-line="7" id="ent0005"><rect fill="#F1F1F1" height="46.2969" rx="2.5" ry="2.5" style="stroke:#181818;stroke-width:0.5;" width="151.8496" x="191.48" y="169"/><rect fill="#F1F1F1" height="10" style="stroke:#181818;stroke-width:0.5;" width="15" x="323.3296" y="174"/><rect fill="#F1F1F1" height="2" style="stroke:#181818;stroke-width:0.5;" width="4" x="321.3296" y="176"/><rect fill="#F1F1F1" height="2" style="stroke:#181818;stroke-width:0.5;" width="4" x="321.3296" y="180"/><text fill="#000000" font-family="sans-serif" font-size="14" lengthAdjust="spacing" textLength="111.8496" x="206.48" y="201.9951">Booking Module</text></g><!--entity Payment--><g class="entity" data-qualified-name="Payment" data-source-line="8" id="ent0006"><rect fill="#F1F1F1" height="46.2969" rx="2.5" ry="2.5" style="stroke:#181818;stroke-width:0.5;" width="157.2773" x="403.33" y="169"/><rect fill="#F1F1F1" height="10" style="stroke:#181818;stroke-width:0.5;" width="15" x="540.6073" y="174"/><rect fill="#F1F1F1" height="2" style="stroke:#181818;stroke-width:0.5;" width="4" x="538.6073" y="176"/><rect fill="#F1F1F1" height="2" style="stroke:#181818;stroke-width:0.5;" width="4" x="538.6073" y="180"/><text fill="#000000" font-family="sans-serif" font-size="14" lengthAdjust="spacing" textLength="117.2773" x="418.33" y="201.9951">Payment Module</text></g><!--entity Admin--><g class="entity" data-qualified-name="Admin" data-source-line="9" id="ent0007"><rect fill="#F1F1F1" height="46.2969" rx="2.5" ry="2.5" style="stroke:#181818;stroke-width:0.5;" width="140.2217" x="197.29" y="283"/><rect fill="#F1F1F1" height="10" style="stroke:#181818;stroke-width:0.5;" width="15" x="317.5117" y="288"/><rect fill="#F1F1F1" height="2" style="stroke:#181818;stroke-width:0.5;" width="4" x="315.5117" y="290"/><rect fill="#F1F1F1" height="2" style="stroke:#181818;stroke-width:0.5;" width="4" x="315.5117" y="294"/><text fill="#000000" font-family="sans-serif" font-size="14" lengthAdjust="spacing" textLength="100.2217" x="212.29" y="315.9951">Admin Module</text></g><!--entity ORM--><g class="entity" data-qualified-name="ORM" data-source-line="11" id="ent0008"><rect fill="#F1F1F1" height="46.2969" rx="2.5" ry="2.5" style="stroke:#181818;stroke-width:0.5;" width="126.8506" x="620.61" y="169"/><rect fill="#F1F1F1" height="10" style="stroke:#181818;stroke-width:0.5;" width="15" x="727.4606" y="174"/><rect fill="#F1F1F1" height="2" style="stroke:#181818;stroke-width:0.5;" width="4" x="725.4606" y="176"/><rect fill="#F1F1F1" height="2" style="stroke:#181818;stroke-width:0.5;" width="4" x="725.4606" y="180"/><text fill="#000000" font-family="sans-serif" font-size="14" lengthAdjust="spacing" textLength="86.8506" x="635.61" y="201.9951">Django ORM</text></g><!--entity DB--><g class="entity" data-qualified-name="DB" data-source-line="12" id="ent0009"><path d="M807.46,179.5 C807.46,169.5 850.8604,169.5 850.8604,169.5 C850.8604,169.5 894.2608,169.5 894.2608,179.5 L894.2608,204.7969 C894.2608,214.7969 850.8604,214.7969 850.8604,214.7969 C850.8604,214.7969 807.46,214.7969 807.46,204.7969 L807.46,179.5" fill="#F1F1F1" style="stroke:#181818;stroke-width:0.5;"/><path d="M807.46,179.5 C807.46,189.5 850.8604,189.5 850.8604,189.5 C850.8604,189.5 894.2608,189.5 894.2608,179.5" fill="none" style="stroke:#181818;stroke-width:0.5;"/><text fill="#000000" font-family="sans-serif" font-size="14" lengthAdjust="spacing" textLength="66.8008" x="817.46" y="206.4951">Database</text></g><!--link UI to Auth--><g class="link" data-entity-1="ent0002" data-entity-2="ent0003" data-link-type="dependency" data-source-line="14" id="lnk10"><path d="M131.81,129.44 C150.8,122.18 171.88,114.49 191.48,108.15 C268.36,83.28 352.6347,61.3273 411.6447,46.7673" fill="none" id="UI-to-Auth" style="stroke:#181818;stroke-width:1;"/><polygon fill="#181818" points="417.47,45.33,407.7738,43.6024,412.6156,46.5278,409.6903,51.3695,417.47,45.33" style="stroke:#181818;stroke-width:1;"/></g><!--link UI to Event--><g class="link" data-entity-1="ent0002" data-entity-2="ent0004" data-link-type="dependency" data-source-line="15" id="lnk11"><path d="M131.73,147.71 C207.48,139.78 329.7526,126.9849 407.9626,118.7949" fill="none" id="UI-to-Event" style="stroke:#181818;stroke-width:1;"/><polygon fill="#181818" points="413.93,118.17,404.5623,115.1291,408.9572,118.6907,405.3955,123.0856,413.93,118.17" style="stroke:#181818;stroke-width:1;"/></g><!--link UI to Booking--><g class="link" data-entity-1="ent0002" data-entity-2="ent0005" data-link-type="dependency" data-source-line="16" id="lnk12"><path d="M131.77,166.07 C150.65,169.73 165.7394,172.6496 185.4194,176.4596" fill="none" id="UI-to-Booking" style="stroke:#181818;stroke-width:1;"/><polygon fill="#181818" points="191.31,177.6,183.2343,171.9623,186.4011,176.6497,181.7138,179.8165,191.31,177.6" style="stroke:#181818;stroke-width:1;"/></g><!--link UI to Admin--><g class="link" data-entity-1="ent0002" data-entity-2="ent0007" data-link-type="dependency" data-source-line="17" id="lnk13"><path d="M110.88,185.65 C148.14,214.52 197.7275,252.9346 231.3275,278.9746" fill="none" id="UI-to-Admin" style="stroke:#181818;stroke-width:1;"/><polygon fill="#181818" points="236.07,282.65,231.4066,273.9752,232.1179,279.5871,226.506,280.2985,236.07,282.65" style="stroke:#181818;stroke-width:1;"/></g><!--link Booking to Payment--><g class="link" data-entity-1="ent0005" data-entity-2="ent0006" data-link-type="dependency" data-source-line="19" id="lnk14"><path d="M343.64,192.15 C362.87,192.15 377.59,192.15 396.95,192.15" fill="none" id="Booking-to-Payment" style="stroke:#181818;stroke-width:1;"/><polygon fill="#181818" points="402.95,192.15,393.95,188.15,397.95,192.15,393.95,196.15,402.95,192.15" style="stroke:#181818;stroke-width:1;"/></g><!--link Auth to ORM--><g class="link" data-entity-1="ent0003" data-entity-2="ent0008" data-link-type="dependency" data-source-line="20" id="lnk15"><path d="M534.01,53.58 C543.16,58.58 552.39,64.17 560.61,70.15 C601.1,99.66 636.933,138.0536 659.683,164.3336" fill="none" id="Auth-to-ORM" style="stroke:#181818;stroke-width:1;"/><polygon fill="#181818" points="663.61,168.87,660.7437,159.4475,660.3375,165.0897,654.6952,164.6835,663.61,168.87" style="stroke:#181818;stroke-width:1;"/></g><!--link Event to ORM--><g class="link" data-entity-1="ent0004" data-entity-2="ent0008" data-link-type="dependency" data-source-line="21" id="lnk16"><path d="M541.37,134.8 C567.67,145.44 593.0791,155.7269 619.3391,166.3669" fill="none" id="Event-to-ORM" style="stroke:#181818;stroke-width:1;"/><polygon fill="#181818" points="624.9,168.62,618.0608,161.533,620.2659,166.7424,615.0566,168.9475,624.9,168.62" style="stroke:#181818;stroke-width:1;"/></g><!--link Booking to ORM--><g class="link" data-entity-1="ent0005" data-entity-2="ent0008" data-link-type="dependency" data-source-line="22" id="lnk17"><path d="M332.03,215.7 C354.26,222.79 379.6,229.63 403.33,233.15 C472.47,243.42 491.61,244.4 560.61,233.15 C582.18,229.64 599.4085,224.8367 619.4985,217.7867" fill="none" id="Booking-to-ORM" style="stroke:#181818;stroke-width:1;"/><polygon fill="#181818" points="625.16,215.8,615.3432,215.0058,620.4421,217.4556,617.9922,222.5545,625.16,215.8" style="stroke:#181818;stroke-width:1;"/></g><!--link Payment to ORM--><g class="link" data-entity-1="ent0006" data-entity-2="ent0008" data-link-type="dependency" data-source-line="23" id="lnk18"><path d="M560.89,192.15 C580.53,192.15 595.36,192.15 614.16,192.15" fill="none" id="Payment-to-ORM" style="stroke:#181818;stroke-width:1;"/><polygon fill="#181818" points="620.16,192.15,611.16,188.15,615.16,192.15,611.16,196.15,620.16,192.15" style="stroke:#181818;stroke-width:1;"/></g><!--link Admin to ORM--><g class="link" data-entity-1="ent0007" data-entity-2="ent0008" data-link-type="dependency" data-source-line="24" id="lnk19"><path d="M337.84,297.89 C397.84,289.56 486.35,274.42 560.61,250.15 C587.99,241.2 611.8625,230.2806 634.8825,218.4606" fill="none" id="Admin-to-ORM" style="stroke:#181818;stroke-width:1;"/><polygon fill="#181818" points="640.22,215.72,630.3867,216.2726,635.7721,218.0039,634.0408,223.3893,640.22,215.72" style="stroke:#181818;stroke-width:1;"/></g><!--link ORM to DB--><g class="link" data-entity-1="ent0008" data-entity-2="ent0009" data-link-type="dependency" data-source-line="26" id="lnk20"><path d="M747.81,192.15 C767.65,192.15 783.09,192.15 801.18,192.15" fill="none" id="ORM-to-DB" style="stroke:#181818;stroke-width:1;"/><polygon fill="#181818" points="807.18,192.15,798.18,188.15,802.18,192.15,798.18,196.15,807.18,192.15" style="stroke:#181818;stroke-width:1;"/></g><!--SRC=[NL3B3e8m4BptApQSzC0lc4Zmm85eZCIBbq8hL6bBe9Zuz_QrIV7ItPcTT6Tsv4y3HiCi-i404pFlZD2Aa4xBIIkk36Htta9JFTJknkKqKiENVGPqiTn6TbpD0BLcwyZzsE5qVlguaWWyaIeAhTz2zQacKgdgGh_oxwT8RTmmATJ6ZYCsXiiNLRs6yxNs0bi9euQsTE5s63i_AWj2cWho_11InJu4Y02TeYwimqYEGfV-K8vm6yDL4ALoXp4huf0A4R6F1sNn0m00]--></g></svg>
