<svg xmlns="http://www.w3.org/2000/svg" xmlns:xlink="http://www.w3.org/1999/xlink" contentStyleType="text/css" data-diagram-type="DESCRIPTION" height="504px" preserveAspectRatio="none" style="width:468px;height:504px;background:#FFFFFF;" version="1.1" viewBox="0 0 468 504" width="468px" zoomAndPan="magnify"><defs/><g><!--cluster Client Browser--><g class="cluster" data-qualified-name="Client Browser" data-source-line="1" id="ent0002"><polygon fill="none" points="145,16,155,6,336,6,336,98.3,326,108.3,145,108.3,145,16" style="stroke:#181818;stroke-width:1;"/><line style="stroke:#181818;stroke-width:1;" x1="326" x2="336" y1="16" y2="6"/><line style="stroke:#181818;stroke-width:1;" x1="145" x2="326" y1="16" y2="16"/><line style="stroke:#181818;stroke-width:1;" x1="326" x2="326" y1="16" y2="108.3"/><text fill="#000000" font-family="sans-serif" font-size="14" font-weight="bold" lengthAdjust="spacing" textLength="115.7598" x="178.6201" y="31.9951">Client Browser</text></g><!--cluster Web Server--><g class="cluster" data-qualified-name="Web Server" data-source-line="5" id="ent0004"><polygon fill="none" points="157,142.3,167,132.3,324,132.3,324,224.6,314,234.6,157,234.6,157,142.3" style="stroke:#181818;stroke-width:1;"/><line style="stroke:#181818;stroke-width:1;" x1="314" x2="324" y1="142.3" y2="132.3"/><line style="stroke:#181818;stroke-width:1;" x1="157" x2="314" y1="142.3" y2="142.3"/><line style="stroke:#181818;stroke-width:1;" x1="314" x2="314" y1="142.3" y2="234.6"/><text fill="#000000" font-family="sans-serif" font-size="14" font-weight="bold" lengthAdjust="spacing" textLength="91.8408" x="190.5796" y="158.2951">Web Server</text></g><!--cluster Application Server--><g class="cluster" data-qualified-name="Application Server" data-source-line="9" id="ent0006"><polygon fill="none" points="136,268.6,146,258.6,358,258.6,358,350.89,348,360.89,136,360.89,136,268.6" style="stroke:#181818;stroke-width:1;"/><line style="stroke:#181818;stroke-width:1;" x1="348" x2="358" y1="268.6" y2="258.6"/><line style="stroke:#181818;stroke-width:1;" x1="136" x2="348" y1="268.6" y2="268.6"/><line style="stroke:#181818;stroke-width:1;" x1="348" x2="348" y1="268.6" y2="360.89"/><text fill="#000000" font-family="sans-serif" font-size="14" font-weight="bold" lengthAdjust="spacing" textLength="146.1797" x="169.9102" y="284.5951">Application Server</text></g><!--cluster Database Server--><g class="cluster" data-qualified-name="Database Server" data-source-line="13" id="ent0008"><polygon fill="none" points="16,394.89,26,384.89,223,384.89,223,477.19,213,487.19,16,487.19,16,394.89" style="stroke:#181818;stroke-width:1;"/><line style="stroke:#181818;stroke-width:1;" x1="213" x2="223" y1="394.89" y2="384.89"/><line style="stroke:#181818;stroke-width:1;" x1="16" x2="213" y1="394.89" y2="394.89"/><line style="stroke:#181818;stroke-width:1;" x1="213" x2="213" y1="394.89" y2="487.19"/><text fill="#000000" font-family="sans-serif" font-size="14" font-weight="bold" lengthAdjust="spacing" textLength="131.3867" x="49.8066" y="410.8851">Database Server</text></g><!--cluster External Service--><g class="cluster" data-qualified-name="External Service" data-source-line="17" id="ent0010"><polygon fill="none" points="247,394.89,257,384.89,451,384.89,451,477.19,441,487.19,247,487.19,247,394.89" style="stroke:#181818;stroke-width:1;"/><line style="stroke:#181818;stroke-width:1;" x1="441" x2="451" y1="394.89" y2="384.89"/><line style="stroke:#181818;stroke-width:1;" x1="247" x2="441" y1="394.89" y2="394.89"/><line style="stroke:#181818;stroke-width:1;" x1="441" x2="441" y1="394.89" y2="487.19"/><text fill="#000000" font-family="sans-serif" font-size="14" font-weight="bold" lengthAdjust="spacing" textLength="128.9736" x="280.5132" y="410.8851">External Service</text></g><!--entity Web UI--><g class="entity" data-qualified-name="Client Browser.Web UI" data-source-line="2" id="ent0003"><rect fill="#F1F1F1" height="46.2969" rx="2.5" ry="2.5" style="stroke:#181818;stroke-width:0.5;" width="90.1689" x="194.92" y="46"/><rect fill="#F1F1F1" height="10" style="stroke:#181818;stroke-width:0.5;" width="15" x="265.0889" y="51"/><rect fill="#F1F1F1" height="2" style="stroke:#181818;stroke-width:0.5;" width="4" x="263.0889" y="53"/><rect fill="#F1F1F1" height="2" style="stroke:#181818;stroke-width:0.5;" width="4" x="263.0889" y="57"/><text fill="#000000" font-family="sans-serif" font-size="14" lengthAdjust="spacing" textLength="50.1689" x="209.92" y="78.9951">Web UI</text></g><!--entity Nginx--><g class="entity" data-qualified-name="Web Server.Nginx" data-source-line="6" id="ent0005"><rect fill="#F1F1F1" height="46.2969" rx="2.5" ry="2.5" style="stroke:#181818;stroke-width:0.5;" width="80.4072" x="199.8" y="172.3"/><rect fill="#F1F1F1" height="10" style="stroke:#181818;stroke-width:0.5;" width="15" x="260.2072" y="177.3"/><rect fill="#F1F1F1" height="2" style="stroke:#181818;stroke-width:0.5;" width="4" x="258.2072" y="179.3"/><rect fill="#F1F1F1" height="2" style="stroke:#181818;stroke-width:0.5;" width="4" x="258.2072" y="183.3"/><text fill="#000000" font-family="sans-serif" font-size="14" lengthAdjust="spacing" textLength="40.4072" x="214.8" y="205.2951">Nginx</text></g><!--entity Django App--><g class="entity" data-qualified-name="Application Server.Django App" data-source-line="10" id="ent0007"><rect fill="#F1F1F1" height="46.2969" rx="2.5" ry="2.5" style="stroke:#181818;stroke-width:0.5;" width="121.375" x="179.31" y="298.6"/><rect fill="#F1F1F1" height="10" style="stroke:#181818;stroke-width:0.5;" width="15" x="280.685" y="303.6"/><rect fill="#F1F1F1" height="2" style="stroke:#181818;stroke-width:0.5;" width="4" x="278.685" y="305.6"/><rect fill="#F1F1F1" height="2" style="stroke:#181818;stroke-width:0.5;" width="4" x="278.685" y="309.6"/><text fill="#000000" font-family="sans-serif" font-size="14" lengthAdjust="spacing" textLength="81.375" x="194.31" y="331.5951">Django App</text></g><!--entity PostgreSQL--><g class="entity" data-qualified-name="Database Server.PostgreSQL" data-source-line="14" id="ent0009"><rect fill="#F1F1F1" height="46.2969" rx="2.5" ry="2.5" style="stroke:#181818;stroke-width:0.5;" width="120.7529" x="86.62" y="424.89"/><rect fill="#F1F1F1" height="10" style="stroke:#181818;stroke-width:0.5;" width="15" x="187.3729" y="429.89"/><rect fill="#F1F1F1" height="2" style="stroke:#181818;stroke-width:0.5;" width="4" x="185.3729" y="431.89"/><rect fill="#F1F1F1" height="2" style="stroke:#181818;stroke-width:0.5;" width="4" x="185.3729" y="435.89"/><text fill="#000000" font-family="sans-serif" font-size="14" lengthAdjust="spacing" textLength="80.7529" x="101.62" y="457.8851">PostgreSQL</text></g><!--entity Payment Gateway--><g class="entity" data-qualified-name="External Service.Payment Gateway" data-source-line="18" id="ent0011"><rect fill="#F1F1F1" height="46.2969" rx="2.5" ry="2.5" style="stroke:#181818;stroke-width:0.5;" width="168.2148" x="262.89" y="424.89"/><rect fill="#F1F1F1" height="10" style="stroke:#181818;stroke-width:0.5;" width="15" x="411.1048" y="429.89"/><rect fill="#F1F1F1" height="2" style="stroke:#181818;stroke-width:0.5;" width="4" x="409.1048" y="431.89"/><rect fill="#F1F1F1" height="2" style="stroke:#181818;stroke-width:0.5;" width="4" x="409.1048" y="435.89"/><text fill="#000000" font-family="sans-serif" font-size="14" lengthAdjust="spacing" textLength="128.2148" x="277.89" y="457.8851">Payment Gateway</text></g><!--link Web UI to Nginx--><g class="link" data-entity-1="ent0003" data-entity-2="ent0005" data-link-type="dependency" data-source-line="21" id="lnk12"><path d="M240,92.66 C240,115.19 240,143.64 240,166.11" fill="none" id="Web UI-to-Nginx" style="stroke:#181818;stroke-width:1;"/><polygon fill="#181818" points="240,172.11,244,163.11,240,167.11,236,163.11,240,172.11" style="stroke:#181818;stroke-width:1;"/></g><!--link Nginx to Django App--><g class="link" data-entity-1="ent0005" data-entity-2="ent0007" data-link-type="dependency" data-source-line="22" id="lnk13"><path d="M240,218.96 C240,241.48 240,269.94 240,292.4" fill="none" id="Nginx-to-Django App" style="stroke:#181818;stroke-width:1;"/><polygon fill="#181818" points="240,298.4,244,289.4,240,293.4,236,289.4,240,298.4" style="stroke:#181818;stroke-width:1;"/></g><!--link Django App to PostgreSQL--><g class="link" data-entity-1="ent0007" data-entity-2="ent0009" data-link-type="dependency" data-source-line="23" id="lnk14"><path d="M223.16,345.25 C206.3,367.78 184.1242,397.4256 167.3142,419.8956" fill="none" id="Django App-to-PostgreSQL" style="stroke:#181818;stroke-width:1;"/><polygon fill="#181818" points="163.72,424.7,172.3142,419.8896,166.7152,420.6964,165.9084,415.0973,163.72,424.7" style="stroke:#181818;stroke-width:1;"/></g><!--link Django App to Payment Gateway--><g class="link" data-entity-1="ent0007" data-entity-2="ent0011" data-link-type="dependency" data-source-line="24" id="lnk15"><path d="M259.38,345.25 C278.77,367.78 304.5159,397.6825 323.8559,420.1525" fill="none" id="Django App-to-Payment Gateway" style="stroke:#181818;stroke-width:1;"/><polygon fill="#181818" points="327.77,424.7,324.9306,415.2693,324.5083,420.9104,318.8672,420.4881,327.77,424.7" style="stroke:#181818;stroke-width:1;"/></g><!--SRC=[TOz12i9034NtSuem-rv1K2iYY2X5NASrb94sATF1jeXtrmR4aTfDI7x-8pyiLmAxhXnnW9MNhYLluM402gaRuL6s5yhXlBFcQGohVnGoylS_taFfk8-iowQfN8712SyXwGsv57Wx8ox5W3csD0STfGsbf-oqZw1D7yWpLWgvWgOK3lNOR35GXuEYd_SWIHQWyOrMdN_2nODklo6ckycj5m00]--></g></svg>
