<svg xmlns="http://www.w3.org/2000/svg" xmlns:xlink="http://www.w3.org/1999/xlink" contentStyleType="text/css" data-diagram-type="SEQUENCE" height="1231px" preserveAspectRatio="none" style="width:982px;height:1231px;background:#FFFFFF;" version="1.1" viewBox="0 0 982 1231" width="982px" zoomAndPan="magnify"><defs/><g><rect fill="none" height="294.1328" style="stroke:#000000;stroke-width:1.5;" width="955.2363" x="10" y="781.2188"/><g class="participant-lifeline" data-entity-uid="part1" data-qualified-name="User" id="part1-lifeline"><g><title>User</title><rect fill="#000000" fill-opacity="0.00000" height="1069.3203" width="8" x="34.9551" y="81.2969"/><line style="stroke:#181818;stroke-width:0.5;stroke-dasharray:5,5;" x1="38" x2="38" y1="81.2969" y2="1150.6172"/></g></g><g class="participant-lifeline" data-entity-uid="part2" data-qualified-name="Admin" id="part2-lifeline"><g><title>Admin</title><rect fill="#000000" fill-opacity="0.00000" height="1069.3203" width="8" x="89.3423" y="81.2969"/><line style="stroke:#181818;stroke-width:0.5;stroke-dasharray:5,5;" x1="92.9102" x2="92.9102" y1="81.2969" y2="1150.6172"/></g></g><g class="participant-lifeline" data-entity-uid="part3" data-qualified-name="Client" id="part3-lifeline"><g><title>Web Client</title><rect fill="#000000" fill-opacity="0.00000" height="1069.3203" width="8" x="218.1416" y="81.2969"/><line style="stroke:#181818;stroke-width:0.5;stroke-dasharray:5,5;" x1="221.98" x2="221.98" y1="81.2969" y2="1150.6172"/></g></g><g class="participant-lifeline" data-entity-uid="part4" data-qualified-name="Auth" id="part4-lifeline"><g><title>Auth Controller</title><rect fill="#000000" fill-opacity="0.00000" height="1069.3203" width="8" x="388.6455" y="81.2969"/><line style="stroke:#181818;stroke-width:0.5;stroke-dasharray:5,5;" x1="392.4277" x2="392.4277" y1="81.2969" y2="1150.6172"/></g></g><g class="participant-lifeline" data-entity-uid="part5" data-qualified-name="EventCtrl" id="part5-lifeline"><g><title>Event Controller</title><rect fill="#000000" fill-opacity="0.00000" height="1069.3203" width="8" x="522.728" y="81.2969"/><line style="stroke:#181818;stroke-width:0.5;stroke-dasharray:5,5;" x1="525.8633" x2="525.8633" y1="81.2969" y2="1150.6172"/></g></g><g class="participant-lifeline" data-entity-uid="part6" data-qualified-name="BookingCtrl" id="part6-lifeline"><g><title>Booking Controller</title><rect fill="#000000" fill-opacity="0.00000" height="1069.3203" width="8" x="668.6504" y="81.2969"/><line style="stroke:#181818;stroke-width:0.5;stroke-dasharray:5,5;" x1="672.5928" x2="672.5928" y1="81.2969" y2="1150.6172"/></g></g><g class="participant-lifeline" data-entity-uid="part7" data-qualified-name="Payment" id="part7-lifeline"><g><title>Payment Service</title><rect fill="#000000" fill-opacity="0.00000" height="1069.3203" width="8" x="816.7637" y="81.2969"/><line style="stroke:#181818;stroke-width:0.5;stroke-dasharray:5,5;" x1="820.708" x2="820.708" y1="81.2969" y2="1150.6172"/></g></g><g class="participant-lifeline" data-entity-uid="part8" data-qualified-name="DB" id="part8-lifeline"><g><title>DB</title><rect fill="#000000" fill-opacity="0.00000" height="1069.3203" width="8" x="933.2363" y="81.2969"/><line style="stroke:#181818;stroke-width:0.5;stroke-dasharray:5,5;" x1="937.2363" x2="937.2363" y1="81.2969" y2="1150.6172"/></g></g><g class="participant participant-head" data-entity-uid="part1" data-qualified-name="User" id="part1-head"><text fill="#000000" font-family="sans-serif" font-size="14" lengthAdjust="spacing" textLength="31.9102" x="20" y="77.9951">User</text><ellipse cx="38.9551" cy="13.5" fill="#E2E2F0" rx="8" ry="8" style="stroke:#181818;stroke-width:0.5;"/><path d="M38.9551,21.5 L38.9551,48.5 M25.9551,29.5 L51.9551,29.5 M38.9551,48.5 L25.9551,63.5 M38.9551,48.5 L51.9551,63.5" fill="none" style="stroke:#181818;stroke-width:0.5;"/></g><g class="participant participant-tail" data-entity-uid="part1" data-qualified-name="User" id="part1-tail"><text fill="#000000" font-family="sans-serif" font-size="14" lengthAdjust="spacing" textLength="31.9102" x="20" y="1162.6123">User</text><ellipse cx="38.9551" cy="1174.4141" fill="#E2E2F0" rx="8" ry="8" style="stroke:#181818;stroke-width:0.5;"/><path d="M38.9551,1182.4141 L38.9551,1209.4141 M25.9551,1190.4141 L51.9551,1190.4141 M38.9551,1209.4141 L25.9551,1224.4141 M38.9551,1209.4141 L51.9551,1224.4141" fill="none" style="stroke:#181818;stroke-width:0.5;"/></g><g class="participant participant-head" data-entity-uid="part2" data-qualified-name="Admin" id="part2-head"><text fill="#000000" font-family="sans-serif" font-size="14" lengthAdjust="spacing" textLength="44.8643" x="67.9102" y="77.9951">Admin</text><ellipse cx="93.3423" cy="13.5" fill="#E2E2F0" rx="8" ry="8" style="stroke:#181818;stroke-width:0.5;"/><path d="M93.3423,21.5 L93.3423,48.5 M80.3423,29.5 L106.3423,29.5 M93.3423,48.5 L80.3423,63.5 M93.3423,48.5 L106.3423,63.5" fill="none" style="stroke:#181818;stroke-width:0.5;"/></g><g class="participant participant-tail" data-entity-uid="part2" data-qualified-name="Admin" id="part2-tail"><text fill="#000000" font-family="sans-serif" font-size="14" lengthAdjust="spacing" textLength="44.8643" x="67.9102" y="1162.6123">Admin</text><ellipse cx="93.3423" cy="1174.4141" fill="#E2E2F0" rx="8" ry="8" style="stroke:#181818;stroke-width:0.5;"/><path d="M93.3423,1182.4141 L93.3423,1209.4141 M80.3423,1190.4141 L106.3423,1190.4141 M93.3423,1209.4141 L80.3423,1224.4141 M93.3423,1209.4141 L106.3423,1224.4141" fill="none" style="stroke:#181818;stroke-width:0.5;"/></g><g class="participant participant-head" data-entity-uid="part3" data-qualified-name="Client" id="part3-head"><rect fill="#E2E2F0" height="30.2969" rx="2.5" ry="2.5" style="stroke:#181818;stroke-width:0.5;" width="90.3232" x="176.98" y="50"/><text fill="#000000" font-family="sans-serif" font-size="14" lengthAdjust="spacing" textLength="76.3232" x="183.98" y="69.9951">Web Client</text></g><g class="participant participant-tail" data-entity-uid="part3" data-qualified-name="Client" id="part3-tail"><rect fill="#E2E2F0" height="30.2969" rx="2.5" ry="2.5" style="stroke:#181818;stroke-width:0.5;" width="90.3232" x="176.98" y="1149.6172"/><text fill="#000000" font-family="sans-serif" font-size="14" lengthAdjust="spacing" textLength="76.3232" x="183.98" y="1169.6123">Web Client</text></g><g class="participant participant-head" data-entity-uid="part4" data-qualified-name="Auth" id="part4-head"><rect fill="#E2E2F0" height="30.2969" rx="2.5" ry="2.5" style="stroke:#181818;stroke-width:0.5;" width="120.4355" x="332.4277" y="50"/><text fill="#000000" font-family="sans-serif" font-size="14" lengthAdjust="spacing" textLength="106.4355" x="339.4277" y="69.9951">Auth Controller</text></g><g class="participant participant-tail" data-entity-uid="part4" data-qualified-name="Auth" id="part4-tail"><rect fill="#E2E2F0" height="30.2969" rx="2.5" ry="2.5" style="stroke:#181818;stroke-width:0.5;" width="120.4355" x="332.4277" y="1149.6172"/><text fill="#000000" font-family="sans-serif" font-size="14" lengthAdjust="spacing" textLength="106.4355" x="339.4277" y="1169.6123">Auth Controller</text></g><g class="participant participant-head" data-entity-uid="part5" data-qualified-name="EventCtrl" id="part5-head"><rect fill="#E2E2F0" height="30.2969" rx="2.5" ry="2.5" style="stroke:#181818;stroke-width:0.5;" width="127.7295" x="462.8633" y="50"/><text fill="#000000" font-family="sans-serif" font-size="14" lengthAdjust="spacing" textLength="113.7295" x="469.8633" y="69.9951">Event Controller</text></g><g class="participant participant-tail" data-entity-uid="part5" data-qualified-name="EventCtrl" id="part5-tail"><rect fill="#E2E2F0" height="30.2969" rx="2.5" ry="2.5" style="stroke:#181818;stroke-width:0.5;" width="127.7295" x="462.8633" y="1149.6172"/><text fill="#000000" font-family="sans-serif" font-size="14" lengthAdjust="spacing" textLength="113.7295" x="469.8633" y="1169.6123">Event Controller</text></g><g class="participant participant-head" data-entity-uid="part6" data-qualified-name="BookingCtrl" id="part6-head"><rect fill="#E2E2F0" height="30.2969" rx="2.5" ry="2.5" style="stroke:#181818;stroke-width:0.5;" width="144.1152" x="600.5928" y="50"/><text fill="#000000" font-family="sans-serif" font-size="14" lengthAdjust="spacing" textLength="130.1152" x="607.5928" y="69.9951">Booking Controller</text></g><g class="participant participant-tail" data-entity-uid="part6" data-qualified-name="BookingCtrl" id="part6-tail"><rect fill="#E2E2F0" height="30.2969" rx="2.5" ry="2.5" style="stroke:#181818;stroke-width:0.5;" width="144.1152" x="600.5928" y="1149.6172"/><text fill="#000000" font-family="sans-serif" font-size="14" lengthAdjust="spacing" textLength="130.1152" x="607.5928" y="1169.6123">Booking Controller</text></g><g class="participant participant-head" data-entity-uid="part7" data-qualified-name="Payment" id="part7-head"><rect fill="#E2E2F0" height="30.2969" rx="2.5" ry="2.5" style="stroke:#181818;stroke-width:0.5;" width="132.1113" x="754.708" y="50"/><text fill="#000000" font-family="sans-serif" font-size="14" lengthAdjust="spacing" textLength="118.1113" x="761.708" y="69.9951">Payment Service</text></g><g class="participant participant-tail" data-entity-uid="part7" data-qualified-name="Payment" id="part7-tail"><rect fill="#E2E2F0" height="30.2969" rx="2.5" ry="2.5" style="stroke:#181818;stroke-width:0.5;" width="132.1113" x="754.708" y="1149.6172"/><text fill="#000000" font-family="sans-serif" font-size="14" lengthAdjust="spacing" textLength="118.1113" x="761.708" y="1169.6123">Payment Service</text></g><g class="participant participant-head" data-entity-uid="part8" data-qualified-name="DB" id="part8-head"><text fill="#000000" font-family="sans-serif" font-size="14" lengthAdjust="spacing" textLength="20.3848" x="924.0439" y="77.9951">DB</text><path d="M919.2363,29 C919.2363,19 937.2363,19 937.2363,19 C937.2363,19 955.2363,19 955.2363,29 L955.2363,55 C955.2363,65 937.2363,65 937.2363,65 C937.2363,65 919.2363,65 919.2363,55 L919.2363,29" fill="#E2E2F0" style="stroke:#181818;stroke-width:0.5;"/><path d="M919.2363,29 C919.2363,39 937.2363,39 937.2363,39 C937.2363,39 955.2363,39 955.2363,29" fill="none" style="stroke:#181818;stroke-width:0.5;"/></g><g class="participant participant-tail" data-entity-uid="part8" data-qualified-name="DB" id="part8-tail"><text fill="#000000" font-family="sans-serif" font-size="14" lengthAdjust="spacing" textLength="20.3848" x="924.0439" y="1162.6123">DB</text><path d="M919.2363,1175.9141 C919.2363,1165.9141 937.2363,1165.9141 937.2363,1165.9141 C937.2363,1165.9141 955.2363,1165.9141 955.2363,1175.9141 L955.2363,1201.9141 C955.2363,1211.9141 937.2363,1211.9141 937.2363,1211.9141 C937.2363,1211.9141 919.2363,1211.9141 919.2363,1201.9141 L919.2363,1175.9141" fill="#E2E2F0" style="stroke:#181818;stroke-width:0.5;"/><path d="M919.2363,1175.9141 C919.2363,1185.9141 937.2363,1185.9141 937.2363,1185.9141 C937.2363,1185.9141 955.2363,1185.9141 955.2363,1175.9141" fill="none" style="stroke:#181818;stroke-width:0.5;"/></g><rect fill="#EEEEEE" height="3" style="stroke:#EEEEEE;stroke-width:1;" width="975.2363" x="0" y="111.8633"/><line style="stroke:#000000;stroke-width:1;" x1="0" x2="975.2363" y1="111.8633" y2="111.8633"/><line style="stroke:#000000;stroke-width:1;" x1="0" x2="975.2363" y1="114.8633" y2="114.8633"/><rect fill="#EEEEEE" height="23.1328" style="stroke:#000000;stroke-width:2;" width="127.3882" x="423.9241" y="101.2969"/><text fill="#000000" font-family="sans-serif" font-size="13" font-weight="bold" lengthAdjust="spacing" textLength="108.8623" x="429.9241" y="117.3638">Authentication</text><g class="message" data-entity-1="part1" data-entity-2="part3" id="msg1"><polygon fill="#181818" points="210.1416,151.5625,220.1416,155.5625,210.1416,159.5625,214.1416,155.5625" style="stroke:#181818;stroke-width:1;"/><line style="stroke:#181818;stroke-width:1;" x1="38.9551" x2="216.1416" y1="155.5625" y2="155.5625"/><text fill="#000000" font-family="sans-serif" font-size="13" lengthAdjust="spacing" textLength="133.25" x="45.9551" y="150.4966">login/signup request</text></g><g class="message" data-entity-1="part3" data-entity-2="part4" id="msg2"><polygon fill="#181818" points="380.6455,180.6953,390.6455,184.6953,380.6455,188.6953,384.6455,184.6953" style="stroke:#181818;stroke-width:1;"/><line style="stroke:#181818;stroke-width:1;" x1="222.1416" x2="386.6455" y1="184.6953" y2="184.6953"/><text fill="#000000" font-family="sans-serif" font-size="13" lengthAdjust="spacing" textLength="107.4341" x="229.1416" y="179.6294">send credentials</text></g><g class="message" data-entity-1="part4" data-entity-2="part8" id="msg3"><polygon fill="#181818" points="925.2363,209.8281,935.2363,213.8281,925.2363,217.8281,929.2363,213.8281" style="stroke:#181818;stroke-width:1;"/><line style="stroke:#181818;stroke-width:1;" x1="392.6455" x2="931.2363" y1="213.8281" y2="213.8281"/><text fill="#000000" font-family="sans-serif" font-size="13" lengthAdjust="spacing" textLength="84.6841" x="399.6455" y="208.7622">validate user</text></g><g class="message" data-entity-1="part8" data-entity-2="part4" id="msg4"><polygon fill="#181818" points="403.6455,238.9609,393.6455,242.9609,403.6455,246.9609,399.6455,242.9609" style="stroke:#181818;stroke-width:1;"/><line style="stroke:#181818;stroke-width:1;stroke-dasharray:2,2;" x1="397.6455" x2="936.2363" y1="242.9609" y2="242.9609"/><text fill="#000000" font-family="sans-serif" font-size="13" lengthAdjust="spacing" textLength="61.769" x="409.6455" y="237.895">user data</text></g><g class="message" data-entity-1="part4" data-entity-2="part3" id="msg5"><polygon fill="#181818" points="233.1416,268.0938,223.1416,272.0938,233.1416,276.0938,229.1416,272.0938" style="stroke:#181818;stroke-width:1;"/><line style="stroke:#181818;stroke-width:1;stroke-dasharray:2,2;" x1="227.1416" x2="391.6455" y1="272.0938" y2="272.0938"/><text fill="#000000" font-family="sans-serif" font-size="13" lengthAdjust="spacing" textLength="146.5039" x="239.1416" y="267.0278">auth success (200 OK)</text></g><rect fill="#EEEEEE" height="3" style="stroke:#EEEEEE;stroke-width:1;" width="975.2363" x="0" y="300.6602"/><line style="stroke:#000000;stroke-width:1;" x1="0" x2="975.2363" y1="300.6602" y2="300.6602"/><line style="stroke:#000000;stroke-width:1;" x1="0" x2="975.2363" y1="303.6602" y2="303.6602"/><rect fill="#EEEEEE" height="23.1328" style="stroke:#000000;stroke-width:2;" width="127.0898" x="424.0732" y="290.0938"/><text fill="#000000" font-family="sans-serif" font-size="13" font-weight="bold" lengthAdjust="spacing" textLength="108.564" x="430.0732" y="306.1606">Event Creation</text><g class="message" data-entity-1="part1" data-entity-2="part3" id="msg6"><polygon fill="#181818" points="210.1416,340.3594,220.1416,344.3594,210.1416,348.3594,214.1416,344.3594" style="stroke:#181818;stroke-width:1;"/><line style="stroke:#181818;stroke-width:1;" x1="38.9551" x2="216.1416" y1="344.3594" y2="344.3594"/><text fill="#000000" font-family="sans-serif" font-size="13" lengthAdjust="spacing" textLength="82.71" x="45.9551" y="339.2935">create event</text></g><g class="message" data-entity-1="part3" data-entity-2="part5" id="msg7"><polygon fill="#181818" points="514.728,369.4922,524.728,373.4922,514.728,377.4922,518.728,373.4922" style="stroke:#181818;stroke-width:1;"/><line style="stroke:#181818;stroke-width:1;" x1="222.1416" x2="520.728" y1="373.4922" y2="373.4922"/><text fill="#000000" font-family="sans-serif" font-size="13" lengthAdjust="spacing" textLength="133.2373" x="229.1416" y="368.4263">submit event details</text></g><g class="message" data-entity-1="part5" data-entity-2="part8" id="msg8"><polygon fill="#181818" points="925.2363,398.625,935.2363,402.625,925.2363,406.625,929.2363,402.625" style="stroke:#181818;stroke-width:1;"/><line style="stroke:#181818;stroke-width:1;" x1="526.728" x2="931.2363" y1="402.625" y2="402.625"/><text fill="#000000" font-family="sans-serif" font-size="13" lengthAdjust="spacing" textLength="118.8599" x="533.728" y="397.5591">save event (Draft)</text></g><g class="message" data-entity-1="part8" data-entity-2="part5" id="msg9"><polygon fill="#181818" points="537.728,427.7578,527.728,431.7578,537.728,435.7578,533.728,431.7578" style="stroke:#181818;stroke-width:1;"/><line style="stroke:#181818;stroke-width:1;stroke-dasharray:2,2;" x1="531.728" x2="936.2363" y1="431.7578" y2="431.7578"/><text fill="#000000" font-family="sans-serif" font-size="13" lengthAdjust="spacing" textLength="79.8408" x="543.728" y="426.6919">event saved</text></g><g class="message" data-entity-1="part5" data-entity-2="part3" id="msg10"><polygon fill="#181818" points="233.1416,456.8906,223.1416,460.8906,233.1416,464.8906,229.1416,460.8906" style="stroke:#181818;stroke-width:1;"/><line style="stroke:#181818;stroke-width:1;stroke-dasharray:2,2;" x1="227.1416" x2="525.728" y1="460.8906" y2="460.8906"/><text fill="#000000" font-family="sans-serif" font-size="13" lengthAdjust="spacing" textLength="90.9619" x="239.1416" y="455.8247">event created</text></g><g class="message" data-entity-1="part1" data-entity-2="part3" id="msg11"><polygon fill="#181818" points="210.1416,486.0234,220.1416,490.0234,210.1416,494.0234,214.1416,490.0234" style="stroke:#181818;stroke-width:1;"/><line style="stroke:#181818;stroke-width:1;" x1="38.9551" x2="216.1416" y1="490.0234" y2="490.0234"/><text fill="#000000" font-family="sans-serif" font-size="13" lengthAdjust="spacing" textLength="127.8164" x="45.9551" y="484.9575">submit for approval</text></g><g class="message" data-entity-1="part3" data-entity-2="part5" id="msg12"><polygon fill="#181818" points="514.728,515.1563,524.728,519.1563,514.728,523.1563,518.728,519.1563" style="stroke:#181818;stroke-width:1;"/><line style="stroke:#181818;stroke-width:1;" x1="222.1416" x2="520.728" y1="519.1563" y2="519.1563"/><text fill="#000000" font-family="sans-serif" font-size="13" lengthAdjust="spacing" textLength="159.6436" x="229.1416" y="514.0903">submit approval request</text></g><g class="message" data-entity-1="part5" data-entity-2="part8" id="msg13"><polygon fill="#181818" points="925.2363,544.2891,935.2363,548.2891,925.2363,552.2891,929.2363,548.2891" style="stroke:#181818;stroke-width:1;"/><line style="stroke:#181818;stroke-width:1;" x1="526.728" x2="931.2363" y1="548.2891" y2="548.2891"/><text fill="#000000" font-family="sans-serif" font-size="13" lengthAdjust="spacing" textLength="215.7695" x="533.728" y="543.2231">update event (Pending Approval)</text></g><g class="message" data-entity-1="part2" data-entity-2="part3" id="msg14"><polygon fill="#181818" points="210.1416,573.4219,220.1416,577.4219,210.1416,581.4219,214.1416,577.4219" style="stroke:#181818;stroke-width:1;"/><line style="stroke:#181818;stroke-width:1;" x1="93.3423" x2="216.1416" y1="577.4219" y2="577.4219"/><text fill="#000000" font-family="sans-serif" font-size="13" lengthAdjust="spacing" textLength="84.4365" x="100.3423" y="572.356">review event</text></g><g class="message" data-entity-1="part3" data-entity-2="part5" id="msg15"><polygon fill="#181818" points="514.728,602.5547,524.728,606.5547,514.728,610.5547,518.728,606.5547" style="stroke:#181818;stroke-width:1;"/><line style="stroke:#181818;stroke-width:1;" x1="222.1416" x2="520.728" y1="606.5547" y2="606.5547"/><text fill="#000000" font-family="sans-serif" font-size="13" lengthAdjust="spacing" textLength="94.6182" x="229.1416" y="601.4888">approve event</text></g><g class="message" data-entity-1="part5" data-entity-2="part8" id="msg16"><polygon fill="#181818" points="925.2363,631.6875,935.2363,635.6875,925.2363,639.6875,929.2363,635.6875" style="stroke:#181818;stroke-width:1;"/><line style="stroke:#181818;stroke-width:1;" x1="526.728" x2="931.2363" y1="635.6875" y2="635.6875"/><text fill="#000000" font-family="sans-serif" font-size="13" lengthAdjust="spacing" textLength="163.8774" x="533.728" y="630.6216">update event (Approved)</text></g><rect fill="#EEEEEE" height="3" style="stroke:#EEEEEE;stroke-width:1;" width="975.2363" x="0" y="664.2539"/><line style="stroke:#000000;stroke-width:1;" x1="0" x2="975.2363" y1="664.2539" y2="664.2539"/><line style="stroke:#000000;stroke-width:1;" x1="0" x2="975.2363" y1="667.2539" y2="667.2539"/><rect fill="#EEEEEE" height="23.1328" style="stroke:#000000;stroke-width:2;" width="124.1255" x="425.5554" y="653.6875"/><text fill="#000000" font-family="sans-serif" font-size="13" font-weight="bold" lengthAdjust="spacing" textLength="105.5996" x="431.5554" y="669.7544">Event Booking</text><g class="message" data-entity-1="part1" data-entity-2="part3" id="msg17"><polygon fill="#181818" points="210.1416,703.9531,220.1416,707.9531,210.1416,711.9531,214.1416,707.9531" style="stroke:#181818;stroke-width:1;"/><line style="stroke:#181818;stroke-width:1;" x1="38.9551" x2="216.1416" y1="707.9531" y2="707.9531"/><text fill="#000000" font-family="sans-serif" font-size="13" lengthAdjust="spacing" textLength="72.8457" x="45.9551" y="702.8872">book event</text></g><g class="message" data-entity-1="part3" data-entity-2="part6" id="msg18"><polygon fill="#181818" points="660.6504,733.0859,670.6504,737.0859,660.6504,741.0859,664.6504,737.0859" style="stroke:#181818;stroke-width:1;"/><line style="stroke:#181818;stroke-width:1;" x1="222.1416" x2="666.6504" y1="737.0859" y2="737.0859"/><text fill="#000000" font-family="sans-serif" font-size="13" lengthAdjust="spacing" textLength="97.4746" x="229.1416" y="732.02">create booking</text></g><g class="message" data-entity-1="part6" data-entity-2="part8" id="msg19"><polygon fill="#181818" points="925.2363,762.2188,935.2363,766.2188,925.2363,770.2188,929.2363,766.2188" style="stroke:#181818;stroke-width:1;"/><line style="stroke:#181818;stroke-width:1;" x1="672.6504" x2="931.2363" y1="766.2188" y2="766.2188"/><text fill="#000000" font-family="sans-serif" font-size="13" lengthAdjust="spacing" textLength="152.3628" x="679.6504" y="761.1528">save booking (Created)</text></g><path d="M10,781.2188 L74.4429,781.2188 L74.4429,788.3516 L64.4429,798.3516 L10,798.3516 L10,781.2188" fill="#EEEEEE" style="stroke:#000000;stroke-width:1.5;"/><rect fill="none" height="294.1328" style="stroke:#000000;stroke-width:1.5;" width="955.2363" x="10" y="781.2188"/><text fill="#000000" font-family="sans-serif" font-size="13" font-weight="bold" lengthAdjust="spacing" textLength="19.4429" x="25" y="794.2856">alt</text><text fill="#000000" font-family="sans-serif" font-size="11" font-weight="bold" lengthAdjust="spacing" textLength="76.1943" x="89.4429" y="793.4292">[Paid event]</text><g class="message" data-entity-1="part3" data-entity-2="part1" id="msg20"><polygon fill="#181818" points="49.9551,815.4844,39.9551,819.4844,49.9551,823.4844,45.9551,819.4844" style="stroke:#181818;stroke-width:1;"/><line style="stroke:#181818;stroke-width:1;" x1="43.9551" x2="221.1416" y1="819.4844" y2="819.4844"/><text fill="#000000" font-family="sans-serif" font-size="13" lengthAdjust="spacing" textLength="159.1865" x="55.9551" y="814.4185">request payment details</text></g><g class="message" data-entity-1="part1" data-entity-2="part3" id="msg21"><polygon fill="#181818" points="210.1416,844.6172,220.1416,848.6172,210.1416,852.6172,214.1416,848.6172" style="stroke:#181818;stroke-width:1;"/><line style="stroke:#181818;stroke-width:1;" x1="38.9551" x2="216.1416" y1="848.6172" y2="848.6172"/><text fill="#000000" font-family="sans-serif" font-size="13" lengthAdjust="spacing" textLength="105.3521" x="45.9551" y="843.5513">payment details</text></g><g class="message" data-entity-1="part3" data-entity-2="part7" id="msg22"><polygon fill="#181818" points="808.7637,873.75,818.7637,877.75,808.7637,881.75,812.7637,877.75" style="stroke:#181818;stroke-width:1;"/><line style="stroke:#181818;stroke-width:1;" x1="222.1416" x2="814.7637" y1="877.75" y2="877.75"/><text fill="#000000" font-family="sans-serif" font-size="13" lengthAdjust="spacing" textLength="107.2754" x="229.1416" y="872.6841">initiate payment</text></g><g class="message" data-entity-1="part7" data-entity-2="part8" id="msg23"><polygon fill="#181818" points="925.2363,902.8828,935.2363,906.8828,925.2363,910.8828,929.2363,906.8828" style="stroke:#181818;stroke-width:1;"/><line style="stroke:#181818;stroke-width:1;" x1="820.7637" x2="931.2363" y1="906.8828" y2="906.8828"/><text fill="#000000" font-family="sans-serif" font-size="13" lengthAdjust="spacing" textLength="92.4727" x="827.7637" y="901.8169">save payment</text></g><g class="message" data-entity-1="part7" data-entity-2="part3" id="msg24"><polygon fill="#181818" points="233.1416,932.0156,223.1416,936.0156,233.1416,940.0156,229.1416,936.0156" style="stroke:#181818;stroke-width:1;"/><line style="stroke:#181818;stroke-width:1;stroke-dasharray:2,2;" x1="227.1416" x2="819.7637" y1="936.0156" y2="936.0156"/><text fill="#000000" font-family="sans-serif" font-size="13" lengthAdjust="spacing" textLength="112.8931" x="239.1416" y="930.9497">payment success</text></g><g class="message" data-entity-1="part3" data-entity-2="part6" id="msg25"><polygon fill="#181818" points="660.6504,961.1484,670.6504,965.1484,660.6504,969.1484,664.6504,965.1484" style="stroke:#181818;stroke-width:1;"/><line style="stroke:#181818;stroke-width:1;" x1="222.1416" x2="666.6504" y1="965.1484" y2="965.1484"/><text fill="#000000" font-family="sans-serif" font-size="13" lengthAdjust="spacing" textLength="105.46" x="229.1416" y="960.0825">confirm booking</text></g><g class="message" data-entity-1="part6" data-entity-2="part8" id="msg26"><polygon fill="#181818" points="925.2363,990.2813,935.2363,994.2813,925.2363,998.2813,929.2363,994.2813" style="stroke:#181818;stroke-width:1;"/><line style="stroke:#181818;stroke-width:1;" x1="672.6504" x2="931.2363" y1="994.2813" y2="994.2813"/><text fill="#000000" font-family="sans-serif" font-size="13" lengthAdjust="spacing" textLength="183.7202" x="679.6504" y="989.2153">update booking (Confirmed)</text></g><line style="stroke:#000000;stroke-width:1;stroke-dasharray:2,2;" x1="10" x2="965.2363" y1="1003.2813" y2="1003.2813"/><text fill="#000000" font-family="sans-serif" font-size="11" font-weight="bold" lengthAdjust="spacing" textLength="76.9248" x="15" y="1013.4917">[Free event]</text><g class="message" data-entity-1="part3" data-entity-2="part6" id="msg27"><polygon fill="#181818" points="660.6504,1034.2188,670.6504,1038.2188,660.6504,1042.2188,664.6504,1038.2188" style="stroke:#181818;stroke-width:1;"/><line style="stroke:#181818;stroke-width:1;" x1="222.1416" x2="666.6504" y1="1038.2188" y2="1038.2188"/><text fill="#000000" font-family="sans-serif" font-size="13" lengthAdjust="spacing" textLength="105.46" x="229.1416" y="1033.1528">confirm booking</text></g><g class="message" data-entity-1="part6" data-entity-2="part8" id="msg28"><polygon fill="#181818" points="925.2363,1063.3516,935.2363,1067.3516,925.2363,1071.3516,929.2363,1067.3516" style="stroke:#181818;stroke-width:1;"/><line style="stroke:#181818;stroke-width:1;" x1="672.6504" x2="931.2363" y1="1067.3516" y2="1067.3516"/><text fill="#000000" font-family="sans-serif" font-size="13" lengthAdjust="spacing" textLength="183.7202" x="679.6504" y="1062.2856">update booking (Confirmed)</text></g><g class="message" data-entity-1="part6" data-entity-2="part3" id="msg29"><polygon fill="#181818" points="233.1416,1099.4844,223.1416,1103.4844,233.1416,1107.4844,229.1416,1103.4844" style="stroke:#181818;stroke-width:1;"/><line style="stroke:#181818;stroke-width:1;stroke-dasharray:2,2;" x1="227.1416" x2="671.6504" y1="1103.4844" y2="1103.4844"/><text fill="#000000" font-family="sans-serif" font-size="13" lengthAdjust="spacing" textLength="138.3281" x="239.1416" y="1098.4185">booking confirmation</text></g><g class="message" data-entity-1="part3" data-entity-2="part1" id="msg30"><polygon fill="#181818" points="49.9551,1128.6172,39.9551,1132.6172,49.9551,1136.6172,45.9551,1132.6172" style="stroke:#181818;stroke-width:1;"/><line style="stroke:#181818;stroke-width:1;stroke-dasharray:2,2;" x1="43.9551" x2="221.1416" y1="1132.6172" y2="1132.6172"/><text fill="#000000" font-family="sans-serif" font-size="13" lengthAdjust="spacing" textLength="132.6978" x="55.9551" y="1127.5513">display confirmation</text></g><!--SRC=[hLGzRzmm3DtrAuXCbo5eqF60At0VxTAX0OeWCstnhaHriYl93lBlGydorzbDbsu6-SZtz4WQor0vUFRa5ARFlRwoLQf65xZa6cs0knSgu6YORBW3zFbp3jatuHSSAnjSPGovX8knEUfhAuMti1Gy1cVcs4DL_MPxkKNdy1B_X6_NsFqdkPPBIk0SKne35kW9JWUbThkaJE9SOk3AmcwdeWFmy2M_3RPWgWlRJvuljgd1qP-6V50vAxZqtYruiXfAHpfsG-DLYal-T91iYuQ5cg29_aheOQoC8OYwSicK6sF4DsL9tiFcy-CZ_FX-duHd0ntzNNWPamGKaHF1WyjHTLDSENGGq1IGHVa8wELxR7CVs9mSdiDz_uPfimuGiNhQOogfWtJ2j5fApdhEidvOrwuItpvMtgE6mIp5DxKUR83DaymfBjC-5ugRQT5dCXorJAyVEjSHz-x-YxLZ8psTNR_MQwCh9BUWdopyEDsY2wffSZQs383DiNDT9A09SX2iCmF0o96KR7iteSwdrAy6m4Bg4Z9swozn2snPpaBqPhZ0-kHCxKfwZIoVn8pinfxAdjbT1ty0rXpAKnezwggYIsJaB_7D4QsuzB-fhDp2hEPs5s95fadtFcp5E3BDlZRuDeEz0m00]--></g></svg>
