<svg xmlns="http://www.w3.org/2000/svg" xmlns:xlink="http://www.w3.org/1999/xlink" contentStyleType="text/css" data-diagram-type="STATE" height="708px" preserveAspectRatio="none" style="width:1785px;height:708px;background:#FFFFFF;" version="1.1" viewBox="0 0 1785 708" width="1785px" zoomAndPan="magnify"><defs/><g><!--cluster User_Module--><g class="cluster" data-qualified-name="User_Module" data-source-line="5" id="ent0002"><path d="M391.58,225 L522.13,225 A12.5,12.5 0 0 1 534.63,237.5 L534.63,246.2969 L379.08,246.2969 L379.08,237.5 A12.5,12.5 0 0 1 391.58,225" fill="#F1F1F1"/><rect fill="none" height="101" rx="12.5" ry="12.5" style="stroke:#181818;stroke-width:0.5;" width="155.55" x="379.08" y="225"/><line style="stroke:#181818;stroke-width:0.5;" x1="379.08" x2="534.63" y1="246.2969" y2="246.2969"/><text fill="#000000" font-family="sans-serif" font-size="14" lengthAdjust="spacing" textLength="89.8174" x="411.9463" y="241.9951">User_Module</text></g><!--cluster Event_Module--><g class="cluster" data-qualified-name="Event_Module" data-source-line="10" id="ent0003"><path d="M740.22,7 L1755.26,7 A12.5,12.5 0 0 1 1767.76,19.5 L1767.76,28.2969 L727.72,28.2969 L727.72,19.5 A12.5,12.5 0 0 1 740.22,7" fill="#F1F1F1"/><rect fill="none" height="273" rx="12.5" ry="12.5" style="stroke:#181818;stroke-width:0.5;" width="1040.04" x="727.72" y="7"/><line style="stroke:#181818;stroke-width:0.5;" x1="727.72" x2="1767.76" y1="28.2969" y2="28.2969"/><text fill="#000000" font-family="sans-serif" font-size="14" lengthAdjust="spacing" textLength="98.0137" x="1198.7332" y="23.9951">Event_Module</text></g><!--cluster Booking_Module--><g class="cluster" data-qualified-name="Booking_Module" data-source-line="18" id="ent0004"><path d="M730.13,304 L1759.88,304 A12.5,12.5 0 0 1 1772.38,316.5 L1772.38,325.2969 L717.63,325.2969 L717.63,316.5 A12.5,12.5 0 0 1 730.13,304" fill="#F1F1F1"/><rect fill="none" height="188" rx="12.5" ry="12.5" style="stroke:#181818;stroke-width:0.5;" width="1054.75" x="717.63" y="304"/><line style="stroke:#181818;stroke-width:0.5;" x1="717.63" x2="1772.38" y1="325.2969" y2="325.2969"/><text fill="#000000" font-family="sans-serif" font-size="14" lengthAdjust="spacing" textLength="114.3994" x="1187.8053" y="320.9951">Booking_Module</text></g><!--cluster Payment_Module--><g class="cluster" data-qualified-name="Payment_Module" data-source-line="26" id="ent0005"><path d="M1002.84,516 L1518.06,516 A12.5,12.5 0 0 1 1530.56,528.5 L1530.56,537.2969 L990.34,537.2969 L990.34,528.5 A12.5,12.5 0 0 1 1002.84,516" fill="#F1F1F1"/><rect fill="none" height="186" rx="12.5" ry="12.5" style="stroke:#181818;stroke-width:0.5;" width="540.22" x="990.34" y="516"/><line style="stroke:#181818;stroke-width:0.5;" x1="990.34" x2="1530.56" y1="537.2969" y2="537.2969"/><text fill="#000000" font-family="sans-serif" font-size="14" lengthAdjust="spacing" textLength="119.8271" x="1200.5364" y="532.9951">Payment_Module</text></g><g><rect fill="#F1F1F1" height="50" rx="12.5" ry="12.5" style="stroke:#181818;stroke-width:0.5;" width="123.5508" x="395.08" y="260"/><line style="stroke:#181818;stroke-width:0.5;" x1="395.08" x2="518.6308" y1="286.2969" y2="286.2969"/><text fill="#000000" font-family="sans-serif" font-size="14" lengthAdjust="spacing" textLength="103.5508" x="405.08" y="277.9951">User_LoggedIn</text></g><g><rect fill="#F1F1F1" height="50" rx="12.5" ry="12.5" style="stroke:#181818;stroke-width:0.5;" width="55.5332" x="743.72" y="200"/><line style="stroke:#181818;stroke-width:0.5;" x1="743.72" x2="799.2532" y1="226.2969" y2="226.2969"/><text fill="#000000" font-family="sans-serif" font-size="14" lengthAdjust="spacing" textLength="35.5332" x="753.72" y="217.9951">Draft</text></g><g><rect fill="#F1F1F1" height="50" rx="12.5" ry="12.5" style="stroke:#181818;stroke-width:0.5;" width="138.8906" x="1009.59" y="166"/><line style="stroke:#181818;stroke-width:0.5;" x1="1009.59" x2="1148.4806" y1="192.2969" y2="192.2969"/><text fill="#000000" font-family="sans-serif" font-size="14" lengthAdjust="spacing" textLength="118.8906" x="1019.59" y="183.9951">PendingApproval</text></g><g><rect fill="#F1F1F1" height="50" rx="12.5" ry="12.5" style="stroke:#181818;stroke-width:0.5;" width="87.457" x="1405.41" y="214"/><line style="stroke:#181818;stroke-width:0.5;" x1="1405.41" x2="1492.867" y1="240.2969" y2="240.2969"/><text fill="#000000" font-family="sans-serif" font-size="14" lengthAdjust="spacing" textLength="67.457" x="1415.41" y="231.9951">Approved</text></g><g><rect fill="#F1F1F1" height="50" rx="12.5" ry="12.5" style="stroke:#181818;stroke-width:0.5;" width="81.5303" x="1408.38" y="129"/><line style="stroke:#181818;stroke-width:0.5;" x1="1408.38" x2="1489.9103" y1="155.2969" y2="155.2969"/><text fill="#000000" font-family="sans-serif" font-size="14" lengthAdjust="spacing" textLength="61.5303" x="1418.38" y="146.9951">Rejected</text></g><g><rect fill="#F1F1F1" height="50" rx="12.5" ry="12.5" style="stroke:#181818;stroke-width:0.5;" width="79.5889" x="1672.17" y="87"/><line style="stroke:#181818;stroke-width:0.5;" x1="1672.17" x2="1751.7589" y1="113.2969" y2="113.2969"/><text fill="#000000" font-family="sans-serif" font-size="14" lengthAdjust="spacing" textLength="59.5889" x="1682.17" y="104.9951">Updated</text></g><g><rect fill="#F1F1F1" height="50" rx="12.5" ry="12.5" style="stroke:#181818;stroke-width:0.5;" width="75.7129" x="733.63" y="339"/><line style="stroke:#181818;stroke-width:0.5;" x1="733.63" x2="809.3429" y1="365.2969" y2="365.2969"/><text fill="#000000" font-family="sans-serif" font-size="14" lengthAdjust="spacing" textLength="55.7129" x="743.63" y="356.9951">Created</text></g><g><rect fill="#F1F1F1" height="50" rx="12.5" ry="12.5" style="stroke:#181818;stroke-width:0.5;" width="138.3848" x="1009.84" y="426"/><line style="stroke:#181818;stroke-width:0.5;" x1="1009.84" x2="1148.2248" y1="452.2969" y2="452.2969"/><text fill="#000000" font-family="sans-serif" font-size="14" lengthAdjust="spacing" textLength="118.3848" x="1019.84" y="443.9951">PendingPayment</text></g><g><rect fill="#F1F1F1" height="50" rx="12.5" ry="12.5" style="stroke:#181818;stroke-width:0.5;" width="92.9258" x="1402.68" y="339"/><line style="stroke:#181818;stroke-width:0.5;" x1="1402.68" x2="1495.6058" y1="365.2969" y2="365.2969"/><text fill="#000000" font-family="sans-serif" font-size="14" lengthAdjust="spacing" textLength="72.9258" x="1412.68" y="356.9951">Confirmed</text></g><g><rect fill="#F1F1F1" height="50" rx="12.5" ry="12.5" style="stroke:#181818;stroke-width:0.5;" width="88.8174" x="1667.56" y="416"/><line style="stroke:#181818;stroke-width:0.5;" x1="1667.56" x2="1756.3774" y1="442.2969" y2="442.2969"/><text fill="#000000" font-family="sans-serif" font-size="14" lengthAdjust="spacing" textLength="68.8174" x="1677.56" y="433.9951">Cancelled</text></g><g><rect fill="#F1F1F1" height="50" rx="12.5" ry="12.5" style="stroke:#181818;stroke-width:0.5;" width="145.3848" x="1006.34" y="551"/><line style="stroke:#181818;stroke-width:0.5;" x1="1006.34" x2="1151.7248" y1="577.2969" y2="577.2969"/><text fill="#000000" font-family="sans-serif" font-size="14" lengthAdjust="spacing" textLength="125.3848" x="1016.34" y="568.9951">Payment_Pending</text></g><g><rect fill="#F1F1F1" height="50" rx="12.5" ry="12.5" style="stroke:#181818;stroke-width:0.5;" width="118.7178" x="1389.78" y="636"/><line style="stroke:#181818;stroke-width:0.5;" x1="1389.78" x2="1508.4978" y1="662.2969" y2="662.2969"/><text fill="#000000" font-family="sans-serif" font-size="14" lengthAdjust="spacing" textLength="98.7178" x="1399.78" y="653.9951">Payment_Paid</text></g><g><rect fill="#F1F1F1" height="50" rx="12.5" ry="12.5" style="stroke:#181818;stroke-width:0.5;" width="130.8311" x="1383.73" y="551"/><line style="stroke:#181818;stroke-width:0.5;" x1="1383.73" x2="1514.5611" y1="577.2969" y2="577.2969"/><text fill="#000000" font-family="sans-serif" font-size="14" lengthAdjust="spacing" textLength="110.8311" x="1393.73" y="568.9951">Payment_Failed</text></g><ellipse cx="16" cy="285" fill="#222222" rx="10" ry="10" style="stroke:#222222;stroke-width:1;"/><g><rect fill="#F1F1F1" height="50" rx="12.5" ry="12.5" style="stroke:#181818;stroke-width:0.5;" width="148.0781" x="87" y="260"/><line style="stroke:#181818;stroke-width:0.5;" x1="87" x2="235.0781" y1="286.2969" y2="286.2969"/><text fill="#000000" font-family="sans-serif" font-size="14" lengthAdjust="spacing" textLength="128.0781" x="97" y="277.9951">User_NotLoggedIn</text></g><!--link *start* to User_NotLoggedIn--><g class="link" data-entity-1="ent0002" data-entity-2="ent0003" data-link-type="dependency" data-source-line="3" id="lnk4"><path d="M26.39,285 C39,285 56.62,285 80.54,285" fill="none" id="*start*-to-User_NotLoggedIn" style="stroke:#181818;stroke-width:1;"/><polygon fill="#181818" points="86.54,285,77.54,281,81.54,285,77.54,289,86.54,285" style="stroke:#181818;stroke-width:1;"/></g><!--link User_NotLoggedIn to User_LoggedIn--><g class="link" data-entity-1="ent0003" data-entity-2="ent0005" data-link-type="dependency" data-source-line="6" id="lnk6"><path d="M235.42,285 C284.54,285 342.44,285 388.79,285" fill="none" id="User_NotLoggedIn-to-User_LoggedIn" style="stroke:#181818;stroke-width:1;"/><polygon fill="#181818" points="394.79,285,385.79,281,389.79,285,385.79,289,394.79,285" style="stroke:#181818;stroke-width:1;"/><text fill="#000000" font-family="sans-serif" font-size="13" lengthAdjust="spacing" textLength="96.5986" x="266.08" y="281.0669">login or signup</text></g><!--link User_LoggedIn to User_NotLoggedIn--><g class="link" data-entity-1="ent0005" data-entity-2="ent0003" data-link-type="dependency" data-source-line="7" id="lnk7"><path d="M394.68,303.91 C384.23,306.44 373.41,308.63 363.08,310 C319.9,315.72 308.33,315.17 265.08,310 C255.39,308.84 251.1758,308.3043 241.2558,306.2543" fill="none" id="User_LoggedIn-to-User_NotLoggedIn" style="stroke:#181818;stroke-width:1;"/><polygon fill="#181818" points="235.38,305.04,243.3843,310.7786,240.2765,306.0519,245.0033,302.9442,235.38,305.04" style="stroke:#181818;stroke-width:1;"/><text fill="#000000" font-family="sans-serif" font-size="13" lengthAdjust="spacing" textLength="41.1074" x="293.58" y="306.0669">logout</text></g><!--link Draft to PendingApproval--><g class="link" data-entity-1="ent0008" data-entity-2="ent0009" data-link-type="dependency" data-source-line="11" id="lnk10"><path d="M799.6,221.98 C846.26,216.79 937.1468,206.6736 1003.3768,199.3036" fill="none" id="Draft-to-PendingApproval" style="stroke:#181818;stroke-width:1;"/><polygon fill="#181818" points="1009.34,198.64,999.9528,195.6599,1004.3707,199.193,1000.8376,203.6108,1009.34,198.64" style="stroke:#181818;stroke-width:1;"/><text fill="#000000" font-family="sans-serif" font-size="13" lengthAdjust="spacing" textLength="133.5229" x="840.34" y="199.0669">submitForApproval()</text></g><!--link PendingApproval to Approved--><g class="link" data-entity-1="ent0009" data-entity-2="ent0011" data-link-type="dependency" data-source-line="12" id="lnk12"><path d="M1148.93,201.38 C1159.89,202.97 1171.12,204.56 1181.73,206 C1260.47,216.68 1346.5414,227.0666 1399.2314,233.2866" fill="none" id="PendingApproval-to-Approved" style="stroke:#181818;stroke-width:1;"/><polygon fill="#181818" points="1405.19,233.99,1396.721,228.9625,1400.2245,233.4038,1395.7831,236.9073,1405.19,233.99" style="stroke:#181818;stroke-width:1;"/><text fill="#000000" font-family="sans-serif" font-size="13" lengthAdjust="spacing" textLength="63.6035" x="1236.23" y="202.0669">approve()</text></g><!--link PendingApproval to Rejected--><g class="link" data-entity-1="ent0009" data-entity-2="ent0013" data-link-type="dependency" data-source-line="13" id="lnk14"><path d="M1148.84,184.08 C1225.21,176.41 1339.9101,164.8806 1402.1301,158.6206" fill="none" id="PendingApproval-to-Rejected" style="stroke:#181818;stroke-width:1;"/><polygon fill="#181818" points="1408.1,158.02,1398.7448,154.941,1403.1251,158.5205,1399.5456,162.9009,1408.1,158.02" style="stroke:#181818;stroke-width:1;"/><text fill="#000000" font-family="sans-serif" font-size="13" lengthAdjust="spacing" textLength="47.3408" x="1244.23" y="160.0669">reject()</text></g><!--link Approved to Updated--><g class="link" data-entity-1="ent0011" data-entity-2="ent0015" data-link-type="dependency" data-source-line="14" id="lnk16"><path d="M1493.32,218.01 C1507.71,211.01 1523.82,203.17 1538.56,196 C1584.36,173.7 1631.6065,150.6788 1666.5465,133.6488" fill="none" id="Approved-to-Updated" style="stroke:#181818;stroke-width:1;"/><polygon fill="#181818" points="1671.94,131.02,1662.0973,131.3676,1667.4455,133.2107,1665.6024,138.5588,1671.94,131.02" style="stroke:#181818;stroke-width:1;"/><text fill="#000000" font-family="sans-serif" font-size="13" lengthAdjust="spacing" textLength="72.3442" x="1556.06" y="145.0669">editEvent()</text></g><!--link Updated to PendingApproval--><g class="link" data-entity-1="ent0015" data-entity-2="ent0009" data-link-type="dependency" data-source-line="15" id="lnk17"><path d="M1671.95,107.5 C1582.71,98.59 1357.8,84 1181.73,139 C1161.1,145.44 1144.8622,152.9474 1126.9722,162.7474" fill="none" id="Updated-to-PendingApproval" style="stroke:#181818;stroke-width:1;"/><polygon fill="#181818" points="1121.71,165.63,1131.525,164.8142,1126.0952,163.2278,1127.6816,157.798,1121.71,165.63" style="stroke:#181818;stroke-width:1;"/><text fill="#000000" font-family="sans-serif" font-size="13" lengthAdjust="spacing" textLength="68.123" x="1415.14" y="95.0669">resubmit()</text></g><!--link Created to PendingPayment--><g class="link" data-entity-1="ent0018" data-entity-2="ent0019" data-link-type="dependency" data-source-line="19" id="lnk20"><path d="M809.65,374.58 C859.19,388.69 942.0192,412.2775 1003.8192,429.8675" fill="none" id="Created-to-PendingPayment" style="stroke:#181818;stroke-width:1;"/><polygon fill="#181818" points="1009.59,431.51,1002.0288,425.199,1004.781,430.1412,999.8388,432.8934,1009.59,431.51" style="stroke:#181818;stroke-width:1;"/><text fill="#000000" font-family="sans-serif" font-size="13" lengthAdjust="spacing" textLength="75.4673" x="869.34" y="382.0669">paidEvent()</text></g><!--link Created to Confirmed--><g class="link" data-entity-1="ent0018" data-entity-2="ent0021" data-link-type="dependency" data-source-line="20" id="lnk22"><path d="M809.61,362.04 C819.28,361.61 829.7,361.22 839.34,361 C899.33,359.65 914.34,360.84 974.34,361 C1142.96,361.44 1185.11,361.66 1353.73,363 C1369.63,363.13 1381.0304,363.2342 1396.5204,363.4042" fill="none" id="Created-to-Confirmed" style="stroke:#181818;stroke-width:1;"/><polygon fill="#181818" points="1402.52,363.47,1393.5644,359.3715,1397.5203,363.4151,1393.4766,367.371,1402.52,363.47" style="stroke:#181818;stroke-width:1;"/><text fill="#000000" font-family="sans-serif" font-size="13" lengthAdjust="spacing" textLength="73.3027" x="1042.53" y="358.0669">freeEvent()</text></g><!--link PendingPayment to Confirmed--><g class="link" data-entity-1="ent0019" data-entity-2="ent0021" data-link-type="dependency" data-source-line="21" id="lnk23"><path d="M1148.41,434.84 C1222.43,417.35 1332.5808,391.3097 1396.4008,376.2297" fill="none" id="PendingPayment-to-Confirmed" style="stroke:#181818;stroke-width:1;"/><polygon fill="#181818" points="1402.24,374.85,1392.5614,373.0268,1397.374,375.9998,1394.401,380.8124,1402.24,374.85" style="stroke:#181818;stroke-width:1;"/><text fill="#000000" font-family="sans-serif" font-size="13" lengthAdjust="spacing" textLength="120.3833" x="1207.73" y="384.0669">paymentSuccess()</text></g><!--link PendingPayment to Cancelled--><g class="link" data-entity-1="ent0019" data-entity-2="ent0024" data-link-type="dependency" data-source-line="22" id="lnk25"><path d="M1148.46,449.92 C1278.77,447.85 1553.2208,443.5055 1661.2808,441.7855" fill="none" id="PendingPayment-to-Cancelled" style="stroke:#181818;stroke-width:1;"/><polygon fill="#181818" points="1667.28,441.69,1658.2175,437.8337,1662.2806,441.7696,1658.3448,445.8327,1667.28,441.69" style="stroke:#181818;stroke-width:1;"/><text fill="#000000" font-family="sans-serif" font-size="13" lengthAdjust="spacing" textLength="106.9707" x="1396.14" y="440.0669">paymentFailed()</text></g><!--link Confirmed to Cancelled--><g class="link" data-entity-1="ent0021" data-entity-2="ent0024" data-link-type="dependency" data-source-line="23" id="lnk26"><path d="M1495.87,377.5 C1544.23,391.78 1614.2058,412.4304 1661.7058,426.4604" fill="none" id="Confirmed-to-Cancelled" style="stroke:#181818;stroke-width:1;"/><polygon fill="#181818" points="1667.46,428.16,1659.9617,421.7744,1662.6648,426.7436,1657.6956,429.4467,1667.46,428.16" style="stroke:#181818;stroke-width:1;"/><text fill="#000000" font-family="sans-serif" font-size="13" lengthAdjust="spacing" textLength="89.3115" x="1547.56" y="390.0669">userCancels()</text></g><!--link Payment_Pending to Payment_Paid--><g class="link" data-entity-1="ent0027" data-entity-2="ent0028" data-link-type="dependency" data-source-line="27" id="lnk29"><path d="M1152.21,593.93 C1162.12,596.34 1172.17,598.75 1181.73,601 C1253.03,617.79 1329.4411,634.8766 1383.4811,646.8066" fill="none" id="Payment_Pending-to-Payment_Paid" style="stroke:#181818;stroke-width:1;"/><polygon fill="#181818" points="1389.34,648.1,1381.4139,642.2539,1384.4576,647.0221,1379.6893,650.0658,1389.34,648.1" style="stroke:#181818;stroke-width:1;"/><text fill="#000000" font-family="sans-serif" font-size="13" lengthAdjust="spacing" textLength="170.2124" x="1182.73" y="597.0669">processPaymentSuccess()</text></g><!--link Payment_Pending to Payment_Failed--><g class="link" data-entity-1="ent0027" data-entity-2="ent0030" data-link-type="dependency" data-source-line="28" id="lnk31"><path d="M1151.88,576 C1219.05,576 1312.44,576 1377.26,576" fill="none" id="Payment_Pending-to-Payment_Failed" style="stroke:#181818;stroke-width:1;"/><polygon fill="#181818" points="1383.26,576,1374.26,572,1378.26,576,1374.26,580,1383.26,576" style="stroke:#181818;stroke-width:1;"/><text fill="#000000" font-family="sans-serif" font-size="13" lengthAdjust="spacing" textLength="140.5498" x="1197.73" y="572.0669">processPaymentFail()</text></g><!--link User_LoggedIn to Draft--><g class="link" data-entity-1="ent0005" data-entity-2="ent0008" data-link-type="dependency" data-source-line="31" id="lnk32"><path d="M518.87,273.29 C586.93,260.23 688.0677,240.8217 737.6877,231.2917" fill="none" id="User_LoggedIn-to-Draft" style="stroke:#181818;stroke-width:1;"/><polygon fill="#181818" points="743.58,230.16,733.9871,227.9293,738.6697,231.1031,735.496,235.7857,743.58,230.16" style="stroke:#181818;stroke-width:1;"/><text fill="#000000" font-family="sans-serif" font-size="13" lengthAdjust="spacing" textLength="149.0303" x="551.63" y="236.0669">organizerCreatesEvent</text></g><!--link User_LoggedIn to Created--><g class="link" data-entity-1="ent0005" data-entity-2="ent0018" data-link-type="dependency" data-source-line="32" id="lnk33"><path d="M518.87,300.42 C582.49,316.49 674.343,339.6993 727.343,353.0993" fill="none" id="User_LoggedIn-to-Created" style="stroke:#181818;stroke-width:1;"/><polygon fill="#181818" points="733.16,354.57,725.415,348.486,728.3125,353.3444,723.4541,356.2419,733.16,354.57" style="stroke:#181818;stroke-width:1;"/><text fill="#000000" font-family="sans-serif" font-size="13" lengthAdjust="spacing" textLength="104.7236" x="574.13" y="307.0669">userBooksEvent</text></g><!--link PendingPayment to Payment_Pending--><g class="link" data-entity-1="ent0019" data-entity-2="ent0027" data-link-type="dependency" data-source-line="33" id="lnk34"><path d="M1079.03,476.29 C1079.03,501.06 1079.03,519.84 1079.03,544.61" fill="none" id="PendingPayment-to-Payment_Pending" style="stroke:#181818;stroke-width:1;"/><polygon fill="#181818" points="1079.03,550.61,1083.03,541.61,1079.03,545.61,1075.03,541.61,1079.03,550.61" style="stroke:#181818;stroke-width:1;"/></g><!--link Payment_Paid to Confirmed--><g class="link" data-entity-1="ent0028" data-entity-2="ent0021" data-link-type="dependency" data-source-line="34" id="lnk35"><path d="M1389.65,658.45 C1348.09,653.18 1295.29,638.75 1267.73,600.5 C1224.33,540.28 1225.67,494.65 1267.73,433.5 C1297.73,389.87 1353.2284,374.4554 1396.2584,368.4054" fill="none" id="Payment_Paid-to-Confirmed" style="stroke:#181818;stroke-width:1;"/><polygon fill="#181818" points="1402.2,367.57,1392.7307,364.862,1397.2487,368.2662,1393.8446,372.7841,1402.2,367.57" style="stroke:#181818;stroke-width:1;"/></g><!--link Payment_Failed to Cancelled--><g class="link" data-entity-1="ent0030" data-entity-2="ent0024" data-link-type="dependency" data-source-line="35" id="lnk36"><path d="M1499.2,550.61 C1547.6,525.56 1615.5714,490.3778 1662.0014,466.3478" fill="none" id="Payment_Failed-to-Cancelled" style="stroke:#181818;stroke-width:1;"/><polygon fill="#181818" points="1667.33,463.59,1657.4985,464.1744,1662.8895,465.8882,1661.1756,471.2792,1667.33,463.59" style="stroke:#181818;stroke-width:1;"/></g><!--SRC=[VLB1IWCn4BtlL-IeGd-W1q6h1K6bA9v496wcCRhDB9DiGSL_TpPfjcbsworvUM_clPaqiFR2eo2ZtxrGXg3s1crLFP-zYDdiN3mveDTxzBUeDQWRVd5UUeZu7Qgk0V5JYH5lBnwGkMXG6okGX3FQTcsIZJLveI33pbU_gVVr5gpFcr-Hv1YzUWLM6QilsfPmAniMk-vjO_mIAM4dfwmeURqsNa2nICRZKUe3VF2W0fN2CJ270Y57gsHaW38-M0waX4-x9OX-cJh4lKJyP5OUU45G5bd9hmttu1gjD6hVBwSkqAuDROAhDG7iMKMHajn6_B6hQt3kg4BQ6fecLoobuNiqCjGhkHslFDvTddjNEi-Te5tpc3zX7BjlJDXxN4qu_aSSVOxaFHmjZJzg_7Hp_ivQMlFD4SAaNHZg13yj8kRjbxgZJaooi5eTP3nOJbKaE9Zj7m00]--></g></svg>
